<?xml version="1.0" encoding="UTF-8" standalone="no"?>
<!DOCTYPE svg PUBLIC "-//W3C//DTD SVG 1.1//EN"
 "http://www.w3.org/Graphics/SVG/1.1/DTD/svg11.dtd">
<!-- Generated by graphviz version 2.44.1 (20200629.0846)
 -->
<!-- Title: ModuleDependencies Pages: 1 -->
<svg width="1091pt" height="1101pt"
 viewBox="0.00 0.00 1091.00 1101.32" xmlns="http://www.w3.org/2000/svg" xmlns:xlink="http://www.w3.org/1999/xlink">
<g id="graph0" class="graph" transform="scale(1 1) rotate(0) translate(4 1097.32)">
<title>ModuleDependencies</title>
<polygon fill="white" stroke="transparent" points="-4,4 -4,-1097.32 1087,-1097.32 1087,4 -4,4"/>
<text text-anchor="middle" x="541.5" y="-35.6" font-family="Consolas" font-size="13.00">Module dependency graph — one node per source directory actually built by CMake</text>
<text text-anchor="middle" x="541.5" y="-21.6" font-family="Consolas" font-size="13.00">(preset V71_hello_world: APP=Hello_world, TARGET=V71_EK_hello_world, BOARD=V71_EK, PLATFORM=SamV71) &#160;&#160;(arrow: module → module it depends on)</text>
<text text-anchor="middle" x="541.5" y="-7.6" font-family="Consolas" font-size="13.00">solid = #include dependency &#160;&#160;&#160;&#160;dashed = C++20 module import &#160;&#160;&#160;&#160;bold red = two&#45;way (circular) dependency between the pair</text>
<g id="clust3" class="cluster">
<title>cluster_Component</title>
<polygon fill="none" stroke="#c4cdc3" stroke-dasharray="5,2" points="323,-457.22 323,-509.22 794.5,-509.22 794.5,-457.22 323,-457.22"/>
</g>
<g id="clust1" class="cluster">
<title>cluster_Application</title>
<polygon fill="none" stroke="#c4cdc3" stroke-dasharray="5,2" points="182,-999.22 182,-1071.22 607.5,-1071.22 607.5,-999.22 182,-999.22"/>
</g>
<g id="clust8" class="cluster">
<title>cluster_Type</title>
<polygon fill="none" stroke="#c4cdc3" stroke-dasharray="5,2" points="704.5,-327.22 704.5,-379.22 1075,-379.22 1075,-327.22 704.5,-327.22"/>
</g>
<g id="clust7" class="cluster">
<title>cluster_Target</title>
<polygon fill="none" stroke="#c4cdc3" stroke-dasharray="5,2" points="8,-240.22 8,-292.22 162,-292.22 162,-240.22 8,-240.22"/>
</g>
<g id="clust2" class="cluster">
<title>cluster_Board</title>
<polygon fill="none" stroke="#c4cdc3" stroke-dasharray="5,2" points="336.5,-240.22 336.5,-292.22 409.5,-292.22 409.5,-240.22 336.5,-240.22"/>
</g>
<g id="clust9" class="cluster">
<title>cluster_Utility</title>
<polygon fill="none" stroke="#c4cdc3" stroke-dasharray="5,2" points="871.5,-775.22 871.5,-827.22 951.5,-827.22 951.5,-775.22 871.5,-775.22"/>
</g>
<g id="clust5" class="cluster">
<title>cluster_Platform</title>
<polygon fill="none" stroke="#c4cdc3" stroke-dasharray="5,2" points="450,-121.22 450,-227.22 818,-227.22 818,-121.22 450,-121.22"/>
</g>
<g id="clust6" class="cluster">
<title>cluster_Support</title>
<polygon fill="none" stroke="#c4cdc3" stroke-dasharray="5,2" points="500.5,-835.22 500.5,-941.22 985,-941.22 985,-835.22 500.5,-835.22"/>
</g>
<g id="clust4" class="cluster">
<title>cluster_Domain</title>
<polygon fill="none" stroke="#c4cdc3" stroke-dasharray="5,2" points="514,-701.22 514,-753.22 808,-753.22 808,-701.22 514,-701.22"/>
</g>
<!-- Application_Hello_world -->
<g id="node1" class="node">
<title>Application_Hello_world</title>
<path fill="#e4ecf7" stroke="#31537a" d="M276,-1043.22C276,-1043.22 202,-1043.22 202,-1043.22 196,-1043.22 190,-1037.22 190,-1031.22 190,-1031.22 190,-1019.22 190,-1019.22 190,-1013.22 196,-1007.22 202,-1007.22 202,-1007.22 276,-1007.22 276,-1007.22 282,-1007.22 288,-1013.22 288,-1019.22 288,-1019.22 288,-1031.22 288,-1031.22 288,-1037.22 282,-1043.22 276,-1043.22"/>
<text text-anchor="middle" x="239" y="-1028.82" font-family="Consolas" font-size="13.00">Application/</text>
<text text-anchor="middle" x="239" y="-1014.82" font-family="Consolas" font-size="13.00">Hello_world</text>
</g>
<!-- Application_Provider -->
<g id="node2" class="node">
<title>Application_Provider</title>
<path fill="#e4ecf7" stroke="#31537a" d="M410,-1043.22C410,-1043.22 336,-1043.22 336,-1043.22 330,-1043.22 324,-1037.22 324,-1031.22 324,-1031.22 324,-1019.22 324,-1019.22 324,-1013.22 330,-1007.22 336,-1007.22 336,-1007.22 410,-1007.22 410,-1007.22 416,-1007.22 422,-1013.22 422,-1019.22 422,-1019.22 422,-1031.22 422,-1031.22 422,-1037.22 416,-1043.22 410,-1043.22"/>
<text text-anchor="middle" x="373" y="-1028.82" font-family="Consolas" font-size="13.00">Application/</text>
<text text-anchor="middle" x="373" y="-1014.82" font-family="Consolas" font-size="13.00">Provider</text>
</g>
<!-- Application_Hello_world&#45;&gt;Application_Provider -->
<g id="edge5" class="edge">
<title>Application_Hello_world&#45;&gt;Application_Provider</title>
<path fill="none" stroke="#3a6ea5" stroke-width="1.3" stroke-dasharray="5,2" d="M288.03,-1025.22C297.04,-1025.22 306.53,-1025.22 315.76,-1025.22"/>
<polygon fill="#3a6ea5" stroke="#3a6ea5" stroke-width="1.3" points="315.79,-1028.02 323.79,-1025.22 315.79,-1022.42 315.79,-1028.02"/>
</g>
<!-- Application_Support -->
<g id="node3" class="node">
<title>Application_Support</title>
<path fill="#e4ecf7" stroke="#31537a" d="M587.5,-1063.22C587.5,-1063.22 513.5,-1063.22 513.5,-1063.22 507.5,-1063.22 501.5,-1057.22 501.5,-1051.22 501.5,-1051.22 501.5,-1039.22 501.5,-1039.22 501.5,-1033.22 507.5,-1027.22 513.5,-1027.22 513.5,-1027.22 587.5,-1027.22 587.5,-1027.22 593.5,-1027.22 599.5,-1033.22 599.5,-1039.22 599.5,-1039.22 599.5,-1051.22 599.5,-1051.22 599.5,-1057.22 593.5,-1063.22 587.5,-1063.22"/>
<text text-anchor="middle" x="550.5" y="-1048.82" font-family="Consolas" font-size="13.00">Application/</text>
<text text-anchor="middle" x="550.5" y="-1034.82" font-family="Consolas" font-size="13.00">Support</text>
</g>
<!-- Application_Hello_world&#45;&gt;Application_Support -->
<g id="edge6" class="edge">
<title>Application_Hello_world&#45;&gt;Application_Support</title>
<path fill="none" stroke="#3a6ea5" stroke-width="1.3" stroke-dasharray="5,2" d="M286.77,-1043.26C298.43,-1046.97 311.03,-1050.32 323,-1052.22 380.55,-1061.34 447.32,-1057.56 493.38,-1052.76"/>
<polygon fill="#3a6ea5" stroke="#3a6ea5" stroke-width="1.3" points="493.8,-1055.53 501.45,-1051.89 493.19,-1049.96 493.8,-1055.53"/>
</g>
<!-- Component_IDE3380 -->
<g id="node5" class="node">
<title>Component_IDE3380</title>
<path fill="#f1e4f7" stroke="#6a3a7a" d="M403,-501.22C403,-501.22 343,-501.22 343,-501.22 337,-501.22 331,-495.22 331,-489.22 331,-489.22 331,-477.22 331,-477.22 331,-471.22 337,-465.22 343,-465.22 343,-465.22 403,-465.22 403,-465.22 409,-465.22 415,-471.22 415,-477.22 415,-477.22 415,-489.22 415,-489.22 415,-495.22 409,-501.22 403,-501.22"/>
<text text-anchor="middle" x="373" y="-486.82" font-family="Consolas" font-size="13.00">Component/</text>
<text text-anchor="middle" x="373" y="-472.82" font-family="Consolas" font-size="13.00">IDE3380</text>
</g>
<!-- Application_Hello_world&#45;&gt;Component_IDE3380 -->
<g id="edge7" class="edge">
<title>Application_Hello_world&#45;&gt;Component_IDE3380</title>
<path fill="none" stroke="#3a6ea5" stroke-width="1.3" stroke-dasharray="5,2" d="M244.39,-1007.18C263.89,-927.12 342.66,-603.68 365.66,-509.23"/>
<polygon fill="#3a6ea5" stroke="#3a6ea5" stroke-width="1.3" points="368.42,-509.75 367.59,-501.32 362.98,-508.43 368.42,-509.75"/>
</g>
<!-- Component_SiPM_bias -->
<g id="node6" class="node">
<title>Component_SiPM_bias</title>
<path fill="#f1e4f7" stroke="#6a3a7a" d="M580.5,-501.22C580.5,-501.22 520.5,-501.22 520.5,-501.22 514.5,-501.22 508.5,-495.22 508.5,-489.22 508.5,-489.22 508.5,-477.22 508.5,-477.22 508.5,-471.22 514.5,-465.22 520.5,-465.22 520.5,-465.22 580.5,-465.22 580.5,-465.22 586.5,-465.22 592.5,-471.22 592.5,-477.22 592.5,-477.22 592.5,-489.22 592.5,-489.22 592.5,-495.22 586.5,-501.22 580.5,-501.22"/>
<text text-anchor="middle" x="550.5" y="-486.82" font-family="Consolas" font-size="13.00">Component/</text>
<text text-anchor="middle" x="550.5" y="-472.82" font-family="Consolas" font-size="13.00">SiPM_bias</text>
</g>
<!-- Application_Hello_world&#45;&gt;Component_SiPM_bias -->
<g id="edge8" class="edge">
<title>Application_Hello_world&#45;&gt;Component_SiPM_bias</title>
<path fill="none" stroke="#3a6ea5" stroke-width="1.3" stroke-dasharray="5,2" d="M239.64,-1006.94C238.32,-917.82 237.58,-530.08 323,-456.22 374.29,-411.87 458.28,-438.91 508.3,-461.7"/>
<polygon fill="#3a6ea5" stroke="#3a6ea5" stroke-width="1.3" points="507.29,-464.32 515.72,-465.16 509.66,-459.24 507.29,-464.32"/>
</g>
<!-- Domain -->
<g id="node8" class="node">
<title>Domain</title>
<path fill="#e4f7ec" stroke="#1b6f60" d="M567,-745.22C567,-745.22 534,-745.22 534,-745.22 528,-745.22 522,-739.22 522,-733.22 522,-733.22 522,-721.22 522,-721.22 522,-715.22 528,-709.22 534,-709.22 534,-709.22 567,-709.22 567,-709.22 573,-709.22 579,-715.22 579,-721.22 579,-721.22 579,-733.22 579,-733.22 579,-739.22 573,-745.22 567,-745.22"/>
<text text-anchor="middle" x="550.5" y="-723.82" font-family="Consolas" font-size="13.00">Domain</text>
</g>
<!-- Application_Hello_world&#45;&gt;Domain -->
<g id="edge9" class="edge">
<title>Application_Hello_world&#45;&gt;Domain</title>
<path fill="none" stroke="#3a6ea5" stroke-width="1.3" stroke-dasharray="5,2" d="M239.61,-1006.92C239.66,-958.26 247.06,-824.96 323,-760.22 376.6,-714.52 464.56,-716.28 513.6,-721.69"/>
<polygon fill="#3a6ea5" stroke="#3a6ea5" stroke-width="1.3" points="513.43,-724.49 521.71,-722.66 514.09,-718.93 513.43,-724.49"/>
</g>
<!-- Domain_Generated_code -->
<g id="node9" class="node">
<title>Domain_Generated_code</title>
<path fill="#e4f7ec" stroke="#1b6f60" d="M788,-745.22C788,-745.22 701,-745.22 701,-745.22 695,-745.22 689,-739.22 689,-733.22 689,-733.22 689,-721.22 689,-721.22 689,-715.22 695,-709.22 701,-709.22 701,-709.22 788,-709.22 788,-709.22 794,-709.22 800,-715.22 800,-721.22 800,-721.22 800,-733.22 800,-733.22 800,-739.22 794,-745.22 788,-745.22"/>
<text text-anchor="middle" x="744.5" y="-730.82" font-family="Consolas" font-size="13.00">Domain/</text>
<text text-anchor="middle" x="744.5" y="-716.82" font-family="Consolas" font-size="13.00">Generated_code</text>
</g>
<!-- Application_Hello_world&#45;&gt;Domain_Generated_code -->
<g id="edge10" class="edge">
<title>Application_Hello_world&#45;&gt;Domain_Generated_code</title>
<path fill="none" stroke="#3a6ea5" stroke-width="1.3" stroke-dasharray="5,2" d="M249.16,-1007.11C273.95,-960.41 347.41,-836.17 450,-788.22 528.9,-751.33 557.97,-773.09 643,-754.22 655.42,-751.46 668.6,-748.18 681.2,-744.87"/>
<polygon fill="#3a6ea5" stroke="#3a6ea5" stroke-width="1.3" points="681.94,-747.57 688.95,-742.81 680.5,-742.16 681.94,-747.57"/>
</g>
<!-- Support_Console -->
<g id="node14" class="node">
<title>Support_Console</title>
<path fill="#eef1ee" stroke="#455148" d="M574,-933.22C574,-933.22 527,-933.22 527,-933.22 521,-933.22 515,-927.22 515,-921.22 515,-921.22 515,-909.22 515,-909.22 515,-903.22 521,-897.22 527,-897.22 527,-897.22 574,-897.22 574,-897.22 580,-897.22 586,-903.22 586,-909.22 586,-909.22 586,-921.22 586,-921.22 586,-927.22 580,-933.22 574,-933.22"/>
<text text-anchor="middle" x="550.5" y="-918.82" font-family="Consolas" font-size="13.00">Support/</text>
<text text-anchor="middle" x="550.5" y="-904.82" font-family="Consolas" font-size="13.00">Console</text>
</g>
<!-- Application_Hello_world&#45;&gt;Support_Console -->
<g id="edge11" class="edge">
<title>Application_Hello_world&#45;&gt;Support_Console</title>
<path fill="none" stroke="#3a6ea5" stroke-width="1.3" stroke-dasharray="5,2" d="M286.91,-1007.11C329.32,-990.9 393.59,-966.75 450,-947.22 468.59,-940.78 489.27,-934.05 506.95,-928.44"/>
<polygon fill="#3a6ea5" stroke="#3a6ea5" stroke-width="1.3" points="508.06,-931.03 514.84,-925.95 506.37,-925.69 508.06,-931.03"/>
</g>
<!-- Support_Plumbing_Instruction -->
<g id="node16" class="node">
<title>Support_Plumbing_Instruction</title>
<path fill="#f7f0e4" stroke="#8a5a18" d="M965,-883.22C965,-883.22 858,-883.22 858,-883.22 852,-883.22 846,-877.22 846,-871.22 846,-871.22 846,-859.22 846,-859.22 846,-853.22 852,-847.22 858,-847.22 858,-847.22 965,-847.22 965,-847.22 971,-847.22 977,-853.22 977,-859.22 977,-859.22 977,-871.22 977,-871.22 977,-877.22 971,-883.22 965,-883.22"/>
<text text-anchor="middle" x="911.5" y="-868.82" font-family="Consolas" font-size="13.00">Support/Plumbing/</text>
<text text-anchor="middle" x="911.5" y="-854.82" font-family="Consolas" font-size="13.00">Instruction</text>
</g>
<!-- Application_Hello_world&#45;&gt;Support_Plumbing_Instruction -->
<g id="edge12" class="edge">
<title>Application_Hello_world&#45;&gt;Support_Plumbing_Instruction</title>
<path fill="none" stroke="#3a6ea5" stroke-width="1.3" stroke-dasharray="5,2" d="M277.66,-1043.31C291.61,-1049.3 307.74,-1055.39 323,-1059.22 461.08,-1093.8 505.27,-1108.15 643,-1072.22 729.25,-1049.71 749.18,-1030.87 818,-974.22 848.17,-949.38 876.22,-913.86 893.34,-890.19"/>
<polygon fill="#3a6ea5" stroke="#3a6ea5" stroke-width="1.3" points="895.72,-891.69 898.09,-883.55 891.16,-888.43 895.72,-891.69"/>
</g>
<!-- Support_Repository -->
<g id="node17" class="node">
<title>Support_Repository</title>
<path fill="#eef1ee" stroke="#455148" d="M580.5,-879.22C580.5,-879.22 520.5,-879.22 520.5,-879.22 514.5,-879.22 508.5,-873.22 508.5,-867.22 508.5,-867.22 508.5,-855.22 508.5,-855.22 508.5,-849.22 514.5,-843.22 520.5,-843.22 520.5,-843.22 580.5,-843.22 580.5,-843.22 586.5,-843.22 592.5,-849.22 592.5,-855.22 592.5,-855.22 592.5,-867.22 592.5,-867.22 592.5,-873.22 586.5,-879.22 580.5,-879.22"/>
<text text-anchor="middle" x="550.5" y="-864.82" font-family="Consolas" font-size="13.00">Support/</text>
<text text-anchor="middle" x="550.5" y="-850.82" font-family="Consolas" font-size="13.00">Repository</text>
</g>
<!-- Application_Hello_world&#45;&gt;Support_Repository -->
<g id="edge13" class="edge">
<title>Application_Hello_world&#45;&gt;Support_Repository</title>
<path fill="none" stroke="#3a6ea5" stroke-width="1.3" stroke-dasharray="5,2" d="M258.39,-1006.95C274.54,-991.49 299.13,-969.33 323,-953.22 375.55,-917.74 390.86,-911.09 450,-888.22 466.07,-882 484.12,-876.64 500.39,-872.38"/>
<polygon fill="#3a6ea5" stroke="#3a6ea5" stroke-width="1.3" points="501.16,-875.07 508.22,-870.37 499.77,-869.64 501.16,-875.07"/>
</g>
<!-- Type_Abstract -->
<g id="node19" class="node">
<title>Type_Abstract</title>
<path fill="#eef1ee" stroke="#455148" d="M935,-371.22C935,-371.22 888,-371.22 888,-371.22 882,-371.22 876,-365.22 876,-359.22 876,-359.22 876,-347.22 876,-347.22 876,-341.22 882,-335.22 888,-335.22 888,-335.22 935,-335.22 935,-335.22 941,-335.22 947,-341.22 947,-347.22 947,-347.22 947,-359.22 947,-359.22 947,-365.22 941,-371.22 935,-371.22"/>
<text text-anchor="middle" x="911.5" y="-356.82" font-family="Consolas" font-size="13.00">Type/</text>
<text text-anchor="middle" x="911.5" y="-342.82" font-family="Consolas" font-size="13.00">Abstract</text>
</g>
<!-- Application_Hello_world&#45;&gt;Type_Abstract -->
<g id="edge14" class="edge">
<title>Application_Hello_world&#45;&gt;Type_Abstract</title>
<path fill="none" stroke="#3a6ea5" stroke-width="1.3" stroke-dasharray="5,2" d="M239.65,-1007.13C238.32,-916.25 237.29,-510.44 323,-428.22 482.5,-275.2 600.96,-422.03 818,-380.22 834.51,-377.03 852.31,-372.19 867.84,-367.48"/>
<polygon fill="#3a6ea5" stroke="#3a6ea5" stroke-width="1.3" points="868.92,-370.08 875.74,-365.04 867.27,-364.73 868.92,-370.08"/>
</g>
<!-- Application_Provider&#45;&gt;Application_Support -->
<g id="edge15" class="edge">
<title>Application_Provider&#45;&gt;Application_Support</title>
<path fill="none" stroke="#3a6ea5" stroke-width="1.3" stroke-dasharray="5,2" d="M422.42,-1030.73C444.29,-1033.23 470.26,-1036.19 493.02,-1038.78"/>
<polygon fill="#3a6ea5" stroke="#3a6ea5" stroke-width="1.3" points="492.97,-1041.59 501.24,-1039.72 493.61,-1036.03 492.97,-1041.59"/>
</g>
<!-- Application_Provider&#45;&gt;Component_IDE3380 -->
<g id="edge16" class="edge">
<title>Application_Provider&#45;&gt;Component_IDE3380</title>
<path fill="none" stroke="#3a6ea5" stroke-width="1.3" stroke-dasharray="5,2" d="M373,-1007.06C373,-841.33 373,-675.6 373,-509.87"/>
<polygon fill="#3a6ea5" stroke="#3a6ea5" stroke-width="1.3" points="375.8,-509.48 373,-501.48 370.2,-509.48 375.8,-509.48"/>
</g>
<!-- Application_Provider&#45;&gt;Component_SiPM_bias -->
<g id="edge17" class="edge">
<title>Application_Provider&#45;&gt;Component_SiPM_bias</title>
<path fill="none" stroke="#3a6ea5" stroke-width="1.3" stroke-dasharray="5,2" d="M376.84,-1007.07C384.99,-956.86 410.43,-812.18 450,-697.22 474.31,-626.57 514.47,-547.99 535.57,-508.62"/>
<polygon fill="#3a6ea5" stroke="#3a6ea5" stroke-width="1.3" points="538.19,-509.66 539.52,-501.29 533.26,-507 538.19,-509.66"/>
</g>
<!-- Application_Provider&#45;&gt;Domain -->
<g id="edge1" class="edge">
<title>Application_Provider&#45;&gt;Domain</title>
<path fill="none" stroke="#7a8a80" d="M376.33,-1007.18C382.31,-966.66 401.3,-866.76 450,-800.22 466.94,-777.07 493.37,-758.17 514.73,-745.4"/>
<polygon fill="#7a8a80" stroke="#7a8a80" points="516.26,-747.76 521.76,-741.31 513.44,-742.92 516.26,-747.76"/>
</g>
<!-- Application_Provider&#45;&gt;Domain_Generated_code -->
<g id="edge18" class="edge">
<title>Application_Provider&#45;&gt;Domain_Generated_code</title>
<path fill="none" stroke="#3a6ea5" stroke-width="1.3" stroke-dasharray="5,2" d="M375.56,-1007.03C379.89,-968.38 395.61,-877.81 450,-831.22 516.74,-774.04 563.82,-826.33 643,-788.22 661.51,-779.3 661.7,-770.29 679,-759.22 684.4,-755.76 690.23,-752.4 696.1,-749.24"/>
<polygon fill="#3a6ea5" stroke="#3a6ea5" stroke-width="1.3" points="697.74,-751.54 703.53,-745.35 695.14,-746.58 697.74,-751.54"/>
</g>
<!-- Support_Plumbing_CLI_parser -->
<g id="node15" class="node">
<title>Support_Plumbing_CLI_parser</title>
<path fill="#f7f0e4" stroke="#8a5a18" d="M798,-933.22C798,-933.22 691,-933.22 691,-933.22 685,-933.22 679,-927.22 679,-921.22 679,-921.22 679,-909.22 679,-909.22 679,-903.22 685,-897.22 691,-897.22 691,-897.22 798,-897.22 798,-897.22 804,-897.22 810,-903.22 810,-909.22 810,-909.22 810,-921.22 810,-921.22 810,-927.22 804,-933.22 798,-933.22"/>
<text text-anchor="middle" x="744.5" y="-918.82" font-family="Consolas" font-size="13.00">Support/Plumbing/</text>
<text text-anchor="middle" x="744.5" y="-904.82" font-family="Consolas" font-size="13.00">CLI_parser</text>
</g>
<!-- Application_Provider&#45;&gt;Support_Plumbing_CLI_parser -->
<g id="edge19" class="edge">
<title>Application_Provider&#45;&gt;Support_Plumbing_CLI_parser</title>
<path fill="none" stroke="#3a6ea5" stroke-width="1.3" stroke-dasharray="5,2" d="M403.84,-1007.15C417.52,-999.5 434.18,-991.02 450,-985.22 532.5,-954.93 557.66,-963.18 643,-942.22 652.05,-939.99 661.53,-937.57 670.9,-935.12"/>
<polygon fill="#3a6ea5" stroke="#3a6ea5" stroke-width="1.3" points="671.71,-937.8 678.73,-933.06 670.28,-932.39 671.71,-937.8"/>
</g>
<!-- Application_Provider&#45;&gt;Support_Plumbing_Instruction -->
<g id="edge20" class="edge">
<title>Application_Provider&#45;&gt;Support_Plumbing_Instruction</title>
<path fill="none" stroke="#3a6ea5" stroke-width="1.3" stroke-dasharray="5,2" d="M422.01,-1019.42C521.8,-1006.88 748.13,-975.6 818,-942.22 844.87,-929.38 870.48,-906.97 887.92,-889.63"/>
<polygon fill="#3a6ea5" stroke="#3a6ea5" stroke-width="1.3" points="890.34,-891.16 893.96,-883.5 886.35,-887.23 890.34,-891.16"/>
</g>
<!-- Application_Provider&#45;&gt;Support_Repository -->
<g id="edge21" class="edge">
<title>Application_Provider&#45;&gt;Support_Repository</title>
<path fill="none" stroke="#3a6ea5" stroke-width="1.3" stroke-dasharray="5,2" d="M379.01,-1007.09C388.1,-977.6 410.18,-919.42 450,-888.22 464.42,-876.92 483.21,-870.34 500.57,-866.51"/>
<polygon fill="#3a6ea5" stroke="#3a6ea5" stroke-width="1.3" points="501.13,-869.25 508.42,-864.94 500.03,-863.76 501.13,-869.25"/>
</g>
<!-- Board_V71_EK -->
<g id="node4" class="node">
<title>Board_V71_EK</title>
<path fill="#f7ecdf" stroke="#8a5a30" d="M389.5,-284.22C389.5,-284.22 356.5,-284.22 356.5,-284.22 350.5,-284.22 344.5,-278.22 344.5,-272.22 344.5,-272.22 344.5,-260.22 344.5,-260.22 344.5,-254.22 350.5,-248.22 356.5,-248.22 356.5,-248.22 389.5,-248.22 389.5,-248.22 395.5,-248.22 401.5,-254.22 401.5,-260.22 401.5,-260.22 401.5,-272.22 401.5,-272.22 401.5,-278.22 395.5,-284.22 389.5,-284.22"/>
<text text-anchor="middle" x="373" y="-269.82" font-family="Consolas" font-size="13.00">Board/</text>
<text text-anchor="middle" x="373" y="-255.82" font-family="Consolas" font-size="13.00">V71_EK</text>
</g>
<!-- Board_V71_EK&#45;&gt;Domain -->
<g id="edge22" class="edge">
<title>Board_V71_EK&#45;&gt;Domain</title>
<path fill="none" stroke="#3a6ea5" stroke-width="1.3" stroke-dasharray="5,2" d="M378.7,-284.48C389.53,-325.81 417.81,-429.45 450,-513.22 476.8,-582.95 515.9,-661.92 536.18,-701.58"/>
<polygon fill="#3a6ea5" stroke="#3a6ea5" stroke-width="1.3" points="533.84,-703.14 539.98,-708.98 538.82,-700.58 533.84,-703.14"/>
</g>
<!-- Platform_Common_platform -->
<g id="node10" class="node">
<title>Platform_Common_platform</title>
<path fill="#dff3e6" stroke="#1b6f60" d="M791.5,-165.22C791.5,-165.22 697.5,-165.22 697.5,-165.22 691.5,-165.22 685.5,-159.22 685.5,-153.22 685.5,-153.22 685.5,-141.22 685.5,-141.22 685.5,-135.22 691.5,-129.22 697.5,-129.22 697.5,-129.22 791.5,-129.22 791.5,-129.22 797.5,-129.22 803.5,-135.22 803.5,-141.22 803.5,-141.22 803.5,-153.22 803.5,-153.22 803.5,-159.22 797.5,-165.22 791.5,-165.22"/>
<text text-anchor="middle" x="744.5" y="-150.82" font-family="Consolas" font-size="13.00">Platform/</text>
<text text-anchor="middle" x="744.5" y="-136.82" font-family="Consolas" font-size="13.00">Common_platform</text>
</g>
<!-- Board_V71_EK&#45;&gt;Platform_Common_platform -->
<g id="edge23" class="edge">
<title>Board_V71_EK&#45;&gt;Platform_Common_platform</title>
<path fill="none" stroke="#3a6ea5" stroke-width="1.3" stroke-dasharray="5,2" d="M401.71,-265.14C462.06,-262.35 603.18,-253.27 643,-228.22 667.41,-212.86 656.75,-192.57 679,-174.22 681.01,-172.55 683.14,-170.98 685.36,-169.5"/>
<polygon fill="#3a6ea5" stroke="#3a6ea5" stroke-width="1.3" points="686.86,-171.86 692.21,-165.29 683.93,-167.09 686.86,-171.86"/>
</g>
<!-- Platform_SamV71_platform -->
<g id="node12" class="node">
<title>Platform_SamV71_platform</title>
<path fill="#dff3e6" stroke="#1b6f60" d="M597.5,-219.22C597.5,-219.22 503.5,-219.22 503.5,-219.22 497.5,-219.22 491.5,-213.22 491.5,-207.22 491.5,-207.22 491.5,-195.22 491.5,-195.22 491.5,-189.22 497.5,-183.22 503.5,-183.22 503.5,-183.22 597.5,-183.22 597.5,-183.22 603.5,-183.22 609.5,-189.22 609.5,-195.22 609.5,-195.22 609.5,-207.22 609.5,-207.22 609.5,-213.22 603.5,-219.22 597.5,-219.22"/>
<text text-anchor="middle" x="550.5" y="-204.82" font-family="Consolas" font-size="13.00">Platform/</text>
<text text-anchor="middle" x="550.5" y="-190.82" font-family="Consolas" font-size="13.00">SamV71_platform</text>
</g>
<!-- Board_V71_EK&#45;&gt;Platform_SamV71_platform -->
<g id="edge24" class="edge">
<title>Board_V71_EK&#45;&gt;Platform_SamV71_platform</title>
<path fill="none" stroke="#3a6ea5" stroke-width="1.3" stroke-dasharray="5,2" d="M401.53,-253.48C415.84,-247.06 433.71,-239.35 450,-233.22 460.76,-229.16 472.29,-225.15 483.55,-221.41"/>
<polygon fill="#3a6ea5" stroke="#3a6ea5" stroke-width="1.3" points="484.56,-224.03 491.29,-218.87 482.82,-218.71 484.56,-224.03"/>
</g>
<!-- Board_V71_EK&#45;&gt;Type_Abstract -->
<g id="edge25" class="edge">
<title>Board_V71_EK&#45;&gt;Type_Abstract</title>
<path fill="none" stroke="#3a6ea5" stroke-width="1.3" stroke-dasharray="5,2" d="M401.53,-268.49C471.6,-274.59 662.21,-293.15 818,-326.22 834.44,-329.71 852.23,-334.62 867.77,-339.29"/>
<polygon fill="#3a6ea5" stroke="#3a6ea5" stroke-width="1.3" points="867.21,-342.05 875.68,-341.71 868.84,-336.69 867.21,-342.05"/>
</g>
<!-- Component_IDE3380&#45;&gt;Component_SiPM_bias -->
<g id="edge26" class="edge">
<title>Component_IDE3380&#45;&gt;Component_SiPM_bias</title>
<path fill="none" stroke="#3a6ea5" stroke-width="1.3" stroke-dasharray="5,2" d="M415.15,-483.22C440.58,-483.22 473.37,-483.22 500.19,-483.22"/>
<polygon fill="#3a6ea5" stroke="#3a6ea5" stroke-width="1.3" points="500.31,-486.02 508.31,-483.22 500.31,-480.42 500.31,-486.02"/>
</g>
<!-- Component_IDE3380&#45;&gt;Domain -->
<g id="edge2" class="edge">
<title>Component_IDE3380&#45;&gt;Domain</title>
<path fill="none" stroke="#7a8a80" d="M375.25,-501.4C379.03,-542.03 393.8,-640.84 450,-695.22 467.04,-711.7 492.6,-719.69 513.55,-723.57"/>
<polygon fill="#7a8a80" stroke="#7a8a80" points="513.27,-726.36 521.62,-724.9 514.19,-720.84 513.27,-726.36"/>
</g>
<!-- Platform_FreeRTOS_platform -->
<g id="node11" class="node">
<title>Platform_FreeRTOS_platform</title>
<path fill="#dff3e6" stroke="#1b6f60" d="M798,-219.22C798,-219.22 691,-219.22 691,-219.22 685,-219.22 679,-213.22 679,-207.22 679,-207.22 679,-195.22 679,-195.22 679,-189.22 685,-183.22 691,-183.22 691,-183.22 798,-183.22 798,-183.22 804,-183.22 810,-189.22 810,-195.22 810,-195.22 810,-207.22 810,-207.22 810,-213.22 804,-219.22 798,-219.22"/>
<text text-anchor="middle" x="744.5" y="-204.82" font-family="Consolas" font-size="13.00">Platform/</text>
<text text-anchor="middle" x="744.5" y="-190.82" font-family="Consolas" font-size="13.00">FreeRTOS_platform</text>
</g>
<!-- Component_IDE3380&#45;&gt;Platform_FreeRTOS_platform -->
<g id="edge27" class="edge">
<title>Component_IDE3380&#45;&gt;Platform_FreeRTOS_platform</title>
<path fill="none" stroke="#3a6ea5" stroke-width="1.3" stroke-dasharray="5,2" d="M381.69,-465.19C393.34,-439.62 417.57,-392.55 450,-362.22 521.15,-295.65 557.73,-305.36 643,-258.22 663.46,-246.9 686.11,-234.08 704.73,-223.46"/>
<polygon fill="#3a6ea5" stroke="#3a6ea5" stroke-width="1.3" points="706.35,-225.76 711.91,-219.36 703.58,-220.9 706.35,-225.76"/>
</g>
<!-- Component_IDE3380&#45;&gt;Support_Plumbing_Instruction -->
<g id="edge28" class="edge">
<title>Component_IDE3380&#45;&gt;Support_Plumbing_Instruction</title>
<path fill="none" stroke="#3a6ea5" stroke-width="1.3" stroke-dasharray="5,2" d="M383.58,-501.49C396.03,-523.52 419.79,-560.18 450,-581.22 590.73,-679.21 702.91,-570.08 818,-697.22 858.83,-742.32 809.38,-782.63 846,-831.22 849.1,-835.33 852.84,-838.99 856.95,-842.25"/>
<polygon fill="#3a6ea5" stroke="#3a6ea5" stroke-width="1.3" points="855.52,-844.66 863.66,-847.03 858.77,-840.11 855.52,-844.66"/>
</g>
<!-- Component_IDE3380&#45;&gt;Support_Repository -->
<g id="edge29" class="edge">
<title>Component_IDE3380&#45;&gt;Support_Repository</title>
<path fill="none" stroke="#3a6ea5" stroke-width="1.3" stroke-dasharray="5,2" d="M375.93,-501.36C381.43,-547.06 400.11,-669.45 450,-757.22 467.98,-788.85 497.7,-818.15 519.99,-837.53"/>
<polygon fill="#3a6ea5" stroke="#3a6ea5" stroke-width="1.3" points="518.45,-839.9 526.35,-842.97 522.09,-835.64 518.45,-839.9"/>
</g>
<!-- Component_IDE3380&#45;&gt;Type_Abstract -->
<g id="edge30" class="edge">
<title>Component_IDE3380&#45;&gt;Type_Abstract</title>
<path fill="none" stroke="#3a6ea5" stroke-width="1.3" stroke-dasharray="5,2" d="M415.31,-466.64C426.42,-462.71 438.54,-458.88 450,-456.22 610.38,-418.86 663.08,-469.04 818,-413.22 841.37,-404.79 864.82,-389.49 882.26,-376.45"/>
<polygon fill="#3a6ea5" stroke="#3a6ea5" stroke-width="1.3" points="884.21,-378.48 888.87,-371.4 880.81,-374.03 884.21,-378.48"/>
</g>
<!-- Type_Basic -->
<g id="node20" class="node">
<title>Type_Basic</title>
<path fill="#eef1ee" stroke="#455148" d="M1055,-371.22C1055,-371.22 1025,-371.22 1025,-371.22 1019,-371.22 1013,-365.22 1013,-359.22 1013,-359.22 1013,-347.22 1013,-347.22 1013,-341.22 1019,-335.22 1025,-335.22 1025,-335.22 1055,-335.22 1055,-335.22 1061,-335.22 1067,-341.22 1067,-347.22 1067,-347.22 1067,-359.22 1067,-359.22 1067,-365.22 1061,-371.22 1055,-371.22"/>
<text text-anchor="middle" x="1040" y="-356.82" font-family="Consolas" font-size="13.00">Type/</text>
<text text-anchor="middle" x="1040" y="-342.82" font-family="Consolas" font-size="13.00">Basic</text>
</g>
<!-- Component_IDE3380&#45;&gt;Type_Basic -->
<g id="edge31" class="edge">
<title>Component_IDE3380&#45;&gt;Type_Basic</title>
<path fill="none" stroke="#3a6ea5" stroke-width="1.3" stroke-dasharray="5,2" d="M415.25,-500.05C426.37,-503.98 438.5,-507.74 450,-510.22 610.1,-544.69 656.88,-558.59 818,-529.22 896.04,-514.98 926.57,-519.87 985,-466.22 1010.58,-442.73 1025.26,-404.56 1032.68,-379.18"/>
<polygon fill="#3a6ea5" stroke="#3a6ea5" stroke-width="1.3" points="1035.4,-379.88 1034.84,-371.42 1030,-378.38 1035.4,-379.88"/>
</g>
<!-- Type_Generic -->
<g id="node21" class="node">
<title>Type_Generic</title>
<path fill="#eef1ee" stroke="#455148" d="M764.5,-371.22C764.5,-371.22 724.5,-371.22 724.5,-371.22 718.5,-371.22 712.5,-365.22 712.5,-359.22 712.5,-359.22 712.5,-347.22 712.5,-347.22 712.5,-341.22 718.5,-335.22 724.5,-335.22 724.5,-335.22 764.5,-335.22 764.5,-335.22 770.5,-335.22 776.5,-341.22 776.5,-347.22 776.5,-347.22 776.5,-359.22 776.5,-359.22 776.5,-365.22 770.5,-371.22 764.5,-371.22"/>
<text text-anchor="middle" x="744.5" y="-356.82" font-family="Consolas" font-size="13.00">Type/</text>
<text text-anchor="middle" x="744.5" y="-342.82" font-family="Consolas" font-size="13.00">Generic</text>
</g>
<!-- Component_IDE3380&#45;&gt;Type_Generic -->
<g id="edge32" class="edge">
<title>Component_IDE3380&#45;&gt;Type_Generic</title>
<path fill="none" stroke="#3a6ea5" stroke-width="1.3" stroke-dasharray="5,2" d="M392.1,-465.15C406.6,-451.68 428.06,-433.84 450,-423.22 535.15,-381.96 646.24,-364.07 704.29,-357.12"/>
<polygon fill="#3a6ea5" stroke="#3a6ea5" stroke-width="1.3" points="704.84,-359.87 712.46,-356.17 704.19,-354.31 704.84,-359.87"/>
</g>
<!-- Component_STTS22H -->
<g id="node7" class="node">
<title>Component_STTS22H</title>
<path fill="#f1e4f7" stroke="#6a3a7a" d="M774.5,-501.22C774.5,-501.22 714.5,-501.22 714.5,-501.22 708.5,-501.22 702.5,-495.22 702.5,-489.22 702.5,-489.22 702.5,-477.22 702.5,-477.22 702.5,-471.22 708.5,-465.22 714.5,-465.22 714.5,-465.22 774.5,-465.22 774.5,-465.22 780.5,-465.22 786.5,-471.22 786.5,-477.22 786.5,-477.22 786.5,-489.22 786.5,-489.22 786.5,-495.22 780.5,-501.22 774.5,-501.22"/>
<text text-anchor="middle" x="744.5" y="-486.82" font-family="Consolas" font-size="13.00">Component/</text>
<text text-anchor="middle" x="744.5" y="-472.82" font-family="Consolas" font-size="13.00">STTS22H</text>
</g>
<!-- Component_SiPM_bias&#45;&gt;Component_STTS22H -->
<g id="edge3" class="edge">
<title>Component_SiPM_bias&#45;&gt;Component_STTS22H</title>
<path fill="none" stroke="#7a8a80" d="M592.69,-483.22C622.43,-483.22 662.72,-483.22 694.17,-483.22"/>
<polygon fill="#7a8a80" stroke="#7a8a80" points="694.38,-486.02 702.38,-483.22 694.38,-480.42 694.38,-486.02"/>
</g>
<!-- Component_SiPM_bias&#45;&gt;Domain -->
<g id="edge4" class="edge">
<title>Component_SiPM_bias&#45;&gt;Domain</title>
<path fill="none" stroke="#7a8a80" d="M550.5,-501.32C550.5,-567.89 550.5,-634.45 550.5,-701.01"/>
<polygon fill="#7a8a80" stroke="#7a8a80" points="547.7,-701.13 550.5,-709.13 553.3,-701.13 547.7,-701.13"/>
</g>
<!-- Component_SiPM_bias&#45;&gt;Support_Repository -->
<g id="edge33" class="edge">
<title>Component_SiPM_bias&#45;&gt;Support_Repository</title>
<path fill="none" stroke="#3a6ea5" stroke-width="1.3" stroke-dasharray="5,2" d="M537.29,-501.4C511.65,-537.96 455.89,-623.94 436,-706.22 424.2,-755.03 411.93,-775.13 436,-819.22 448.54,-842.19 475.67,-852.77 500.38,-857.57"/>
<polygon fill="#3a6ea5" stroke="#3a6ea5" stroke-width="1.3" points="499.93,-860.33 508.29,-858.93 500.88,-854.81 499.93,-860.33"/>
</g>
<!-- Component_SiPM_bias&#45;&gt;Type_Basic -->
<g id="edge34" class="edge">
<title>Component_SiPM_bias&#45;&gt;Type_Basic</title>
<path fill="none" stroke="#3a6ea5" stroke-width="1.3" stroke-dasharray="5,2" d="M592.74,-497.46C646.05,-513.62 741.13,-534.74 818,-510.22 900.44,-483.91 978.46,-414.41 1015.88,-377.32"/>
<polygon fill="#3a6ea5" stroke="#3a6ea5" stroke-width="1.3" points="1018.3,-378.87 1021.96,-371.23 1014.33,-374.91 1018.3,-378.87"/>
</g>
<!-- Utility -->
<g id="node22" class="node">
<title>Utility</title>
<path fill="#eef1ee" stroke="#455148" d="M931.5,-819.22C931.5,-819.22 891.5,-819.22 891.5,-819.22 885.5,-819.22 879.5,-813.22 879.5,-807.22 879.5,-807.22 879.5,-795.22 879.5,-795.22 879.5,-789.22 885.5,-783.22 891.5,-783.22 891.5,-783.22 931.5,-783.22 931.5,-783.22 937.5,-783.22 943.5,-789.22 943.5,-795.22 943.5,-795.22 943.5,-807.22 943.5,-807.22 943.5,-813.22 937.5,-819.22 931.5,-819.22"/>
<text text-anchor="middle" x="911.5" y="-797.82" font-family="Consolas" font-size="13.00">Utility</text>
</g>
<!-- Component_SiPM_bias&#45;&gt;Utility -->
<g id="edge35" class="edge">
<title>Component_SiPM_bias&#45;&gt;Utility</title>
<path fill="none" stroke="#3a6ea5" stroke-width="1.3" stroke-dasharray="5,2" d="M585.53,-501.33C639.18,-531.01 744.85,-594.06 818,-667.22 851.21,-700.43 880.28,-746.98 896.59,-775.56"/>
<polygon fill="#3a6ea5" stroke="#3a6ea5" stroke-width="1.3" points="894.28,-777.17 900.65,-782.77 899.16,-774.42 894.28,-777.17"/>
</g>
<!-- Domain&#45;&gt;Domain_Generated_code -->
<g id="edge36" class="edge">
<title>Domain&#45;&gt;Domain_Generated_code</title>
<path fill="none" stroke="#3a6ea5" stroke-width="1.3" stroke-dasharray="5,2" d="M579.01,-727.22C605.41,-727.22 646.22,-727.22 680.59,-727.22"/>
<polygon fill="#3a6ea5" stroke="#3a6ea5" stroke-width="1.3" points="680.72,-730.02 688.72,-727.22 680.72,-724.42 680.72,-730.02"/>
</g>
<!-- Domain&#45;&gt;Type_Abstract -->
<g id="edge37" class="edge">
<title>Domain&#45;&gt;Type_Abstract</title>
<path fill="none" stroke="#3a6ea5" stroke-width="1.3" stroke-dasharray="5,2" d="M579.23,-709.99C631,-676.82 743.81,-599.67 818,-513.22 854.37,-470.84 884.04,-412.13 899.31,-378.88"/>
<polygon fill="#3a6ea5" stroke="#3a6ea5" stroke-width="1.3" points="901.95,-379.84 902.7,-371.4 896.85,-377.53 901.95,-379.84"/>
</g>
<!-- Domain_Generated_code&#45;&gt;Support_Plumbing_Instruction -->
<g id="edge38" class="edge">
<title>Domain_Generated_code&#45;&gt;Support_Plumbing_Instruction</title>
<path fill="none" stroke="#3a6ea5" stroke-width="1.3" stroke-dasharray="5,2" d="M760.02,-745.47C778.35,-767.7 811.66,-805.44 846,-831.22 851.6,-835.42 857.8,-839.4 864.07,-843.05"/>
<polygon fill="#3a6ea5" stroke="#3a6ea5" stroke-width="1.3" points="863.08,-845.7 871.43,-847.17 865.82,-840.82 863.08,-845.7"/>
</g>
<!-- Domain_Generated_code&#45;&gt;Type_Abstract -->
<g id="edge39" class="edge">
<title>Domain_Generated_code&#45;&gt;Type_Abstract</title>
<path fill="none" stroke="#3a6ea5" stroke-width="1.3" stroke-dasharray="5,2" d="M769.82,-709.15C785.6,-696.27 805.49,-677.66 818,-657.22 874.72,-564.53 898.91,-434.51 907.06,-379.47"/>
<polygon fill="#3a6ea5" stroke="#3a6ea5" stroke-width="1.3" points="909.87,-379.62 908.23,-371.3 904.32,-378.82 909.87,-379.62"/>
</g>
<!-- Platform_Common_platform&#45;&gt;Type_Abstract -->
<g id="edge40" class="edge">
<title>Platform_Common_platform&#45;&gt;Type_Abstract</title>
<path fill="none" stroke="#3a6ea5" stroke-width="1.3" stroke-dasharray="5,2" d="M803.55,-163.67C808.8,-166.63 813.74,-170.12 818,-174.22 841.27,-196.58 831.7,-212.28 846,-241.22 861.17,-271.89 881.15,-305.76 894.83,-328.14"/>
<polygon fill="#3a6ea5" stroke="#3a6ea5" stroke-width="1.3" points="892.46,-329.63 899.04,-334.98 897.23,-326.7 892.46,-329.63"/>
</g>
<!-- Platform_Common_platform&#45;&gt;Type_Basic -->
<g id="edge41" class="edge">
<title>Platform_Common_platform&#45;&gt;Type_Basic</title>
<path fill="none" stroke="#3a6ea5" stroke-width="1.3" stroke-dasharray="5,2" d="M799.84,-165.23C806.1,-167.95 812.28,-170.95 818,-174.22 896.97,-219.29 976.68,-292.14 1015.21,-329.48"/>
<polygon fill="#3a6ea5" stroke="#3a6ea5" stroke-width="1.3" points="1013.35,-331.58 1021.03,-335.16 1017.26,-327.57 1013.35,-331.58"/>
</g>
<!-- Platform_FreeRTOS_platform&#45;&gt;Type_Abstract -->
<g id="edge42" class="edge">
<title>Platform_FreeRTOS_platform&#45;&gt;Type_Abstract</title>
<path fill="none" stroke="#3a6ea5" stroke-width="1.3" stroke-dasharray="5,2" d="M765.08,-219.25C794.85,-246.67 851.53,-298.89 884.65,-329.41"/>
<polygon fill="#3a6ea5" stroke="#3a6ea5" stroke-width="1.3" points="883.17,-331.84 890.95,-335.21 886.96,-327.73 883.17,-331.84"/>
</g>
<!-- Platform_SamV71_platform&#45;&gt;Platform_Common_platform -->
<g id="edge43" class="edge">
<title>Platform_SamV71_platform&#45;&gt;Platform_Common_platform</title>
<path fill="none" stroke="#3a6ea5" stroke-width="1.3" stroke-dasharray="5,2" d="M609.63,-184.87C630.96,-178.87 655.26,-172.03 677.25,-165.85"/>
<polygon fill="#3a6ea5" stroke="#3a6ea5" stroke-width="1.3" points="678.3,-168.46 685.24,-163.6 676.78,-163.07 678.3,-168.46"/>
</g>
<!-- Platform_SamV71_platform&#45;&gt;Platform_FreeRTOS_platform -->
<g id="edge44" class="edge">
<title>Platform_SamV71_platform&#45;&gt;Platform_FreeRTOS_platform</title>
<path fill="none" stroke="#3a6ea5" stroke-width="1.3" stroke-dasharray="5,2" d="M609.63,-201.22C628.83,-201.22 650.45,-201.22 670.62,-201.22"/>
<polygon fill="#3a6ea5" stroke="#3a6ea5" stroke-width="1.3" points="670.86,-204.02 678.86,-201.22 670.86,-198.42 670.86,-204.02"/>
</g>
<!-- Platform_SamV71_platform&#45;&gt;Type_Abstract -->
<g id="edge45" class="edge">
<title>Platform_SamV71_platform&#45;&gt;Type_Abstract</title>
<path fill="none" stroke="#3a6ea5" stroke-width="1.3" stroke-dasharray="5,2" d="M609.52,-190.7C621.32,-186.81 633.13,-181.48 643,-174.22 666.22,-157.11 653.57,-133.83 679,-120.22 733.47,-91.06 766.89,-85.51 818,-120.22 887.78,-167.59 904.92,-276.76 909.13,-327.02"/>
<polygon fill="#3a6ea5" stroke="#3a6ea5" stroke-width="1.3" points="906.35,-327.36 909.74,-335.12 911.93,-326.94 906.35,-327.36"/>
</g>
<!-- Platform_SamV71_platform&#45;&gt;Type_Basic -->
<g id="edge46" class="edge">
<title>Platform_SamV71_platform&#45;&gt;Type_Basic</title>
<path fill="none" stroke="#3a6ea5" stroke-width="1.3" stroke-dasharray="5,2" d="M609.56,-192.25C621.62,-188.26 633.53,-182.51 643,-174.22 672.62,-148.25 645.97,-114.68 679,-93.22 730.8,-59.55 758.35,-77.15 818,-93.22 900.88,-115.54 930.88,-123.59 985,-190.22 1017.92,-230.74 1031.07,-292.12 1036.1,-326.84"/>
<polygon fill="#3a6ea5" stroke="#3a6ea5" stroke-width="1.3" points="1033.36,-327.51 1037.2,-335.07 1038.91,-326.76 1033.36,-327.51"/>
</g>
<!-- Platform_SamV71_platform&#45;&gt;Type_Generic -->
<g id="edge47" class="edge">
<title>Platform_SamV71_platform&#45;&gt;Type_Generic</title>
<path fill="none" stroke="#3a6ea5" stroke-width="1.3" stroke-dasharray="5,2" d="M574.28,-219.25C609.21,-246.9 675.99,-299.77 714.38,-330.16"/>
<polygon fill="#3a6ea5" stroke="#3a6ea5" stroke-width="1.3" points="712.74,-332.43 720.75,-335.21 716.22,-328.04 712.74,-332.43"/>
</g>
<!-- Platform_SamV71_platform_SAMV71Q21B -->
<g id="node13" class="node">
<title>Platform_SamV71_platform_SAMV71Q21B</title>
<path fill="#dff3e6" stroke="#1b6f60" d="M631,-165.22C631,-165.22 470,-165.22 470,-165.22 464,-165.22 458,-159.22 458,-153.22 458,-153.22 458,-141.22 458,-141.22 458,-135.22 464,-129.22 470,-129.22 470,-129.22 631,-129.22 631,-129.22 637,-129.22 643,-135.22 643,-141.22 643,-141.22 643,-153.22 643,-153.22 643,-159.22 637,-165.22 631,-165.22"/>
<text text-anchor="middle" x="550.5" y="-150.82" font-family="Consolas" font-size="13.00">Platform/SamV71_platform/</text>
<text text-anchor="middle" x="550.5" y="-136.82" font-family="Consolas" font-size="13.00">SAMV71Q21B</text>
</g>
<!-- Support_Console&#45;&gt;Platform_FreeRTOS_platform -->
<g id="edge48" class="edge">
<title>Support_Console&#45;&gt;Platform_FreeRTOS_platform</title>
<path fill="none" stroke="#3a6ea5" stroke-width="1.3" stroke-dasharray="5,2" d="M586.41,-914.26C606.18,-911.74 629.57,-905.04 643,-888.22 682.25,-839.06 661.92,-383.76 679,-323.22 689.08,-287.48 710.59,-250.3 726,-226.53"/>
<polygon fill="#3a6ea5" stroke="#3a6ea5" stroke-width="1.3" points="728.51,-227.81 730.57,-219.59 723.83,-224.73 728.51,-227.81"/>
</g>
<!-- Support_Console&#45;&gt;Support_Plumbing_CLI_parser -->
<g id="edge49" class="edge">
<title>Support_Console&#45;&gt;Support_Plumbing_CLI_parser</title>
<path fill="none" stroke="#3a6ea5" stroke-width="1.3" stroke-dasharray="5,2" d="M586.27,-915.22C609.78,-915.22 641.7,-915.22 670.63,-915.22"/>
<polygon fill="#3a6ea5" stroke="#3a6ea5" stroke-width="1.3" points="670.7,-918.02 678.7,-915.22 670.7,-912.42 670.7,-918.02"/>
</g>
<!-- Support_Console&#45;&gt;Support_Plumbing_Instruction -->
<g id="edge50" class="edge">
<title>Support_Console&#45;&gt;Support_Plumbing_Instruction</title>
<path fill="none" stroke="#3a6ea5" stroke-width="1.3" stroke-dasharray="5,2" d="M586.21,-906.79C611.75,-900.85 647.36,-893.12 679,-888.22 731.9,-880.01 792.08,-874.14 837.82,-870.38"/>
<polygon fill="#3a6ea5" stroke="#3a6ea5" stroke-width="1.3" points="838.15,-873.16 845.9,-869.73 837.7,-867.58 838.15,-873.16"/>
</g>
<!-- Support_Console&#45;&gt;Type_Abstract -->
<g id="edge51" class="edge">
<title>Support_Console&#45;&gt;Type_Abstract</title>
<path fill="none" stroke="#3a6ea5" stroke-width="1.3" stroke-dasharray="5,2" d="M586.2,-911.46C604.7,-907.96 626.89,-901.22 643,-888.22 669,-867.23 654.65,-845.1 679,-822.22 728.69,-775.51 775.16,-810.28 818,-757.22 865.97,-697.8 897.99,-459.16 907.52,-379.36"/>
<polygon fill="#3a6ea5" stroke="#3a6ea5" stroke-width="1.3" points="910.32,-379.56 908.48,-371.28 904.76,-378.9 910.32,-379.56"/>
</g>
<!-- Support_Console&#45;&gt;Utility -->
<g id="edge52" class="edge">
<title>Support_Console&#45;&gt;Utility</title>
<path fill="none" stroke="#3a6ea5" stroke-width="1.3" stroke-dasharray="5,2" d="M586.01,-906.96C603.42,-902.31 624.67,-895.9 643,-888.22 659.88,-881.14 662.1,-875.25 679,-868.22 713.88,-853.7 814.78,-826.31 871.18,-811.45"/>
<polygon fill="#3a6ea5" stroke="#3a6ea5" stroke-width="1.3" points="872.14,-814.09 879.16,-809.35 870.71,-808.67 872.14,-814.09"/>
</g>
<!-- Support_Plumbing_CLI_parser&#45;&gt;Support_Plumbing_Instruction -->
<g id="edge53" class="edge">
<title>Support_Plumbing_CLI_parser&#45;&gt;Support_Plumbing_Instruction</title>
<path fill="none" stroke="#3a6ea5" stroke-width="1.3" stroke-dasharray="5,2" d="M805.07,-897.16C817.45,-893.41 830.59,-889.43 843.22,-885.6"/>
<polygon fill="#3a6ea5" stroke="#3a6ea5" stroke-width="1.3" points="844.17,-888.24 851.02,-883.24 842.55,-882.88 844.17,-888.24"/>
</g>
<!-- Support_Plumbing_CLI_parser&#45;&gt;Type_Basic -->
<g id="edge54" class="edge">
<title>Support_Plumbing_CLI_parser&#45;&gt;Type_Basic</title>
<path fill="none" stroke="#3a6ea5" stroke-width="1.3" stroke-dasharray="5,2" d="M810.23,-929.17C864.51,-936.73 940.16,-936.87 985,-892.22 1021.74,-855.62 1035.26,-482.02 1038.29,-379.26"/>
<polygon fill="#3a6ea5" stroke="#3a6ea5" stroke-width="1.3" points="1041.09,-379.32 1038.53,-371.24 1035.5,-379.16 1041.09,-379.32"/>
</g>
<!-- Support_Plumbing_CLI_parser&#45;&gt;Utility -->
<g id="edge55" class="edge">
<title>Support_Plumbing_CLI_parser&#45;&gt;Utility</title>
<path fill="none" stroke="#3a6ea5" stroke-width="1.3" stroke-dasharray="5,2" d="M773.84,-897.12C787.73,-887.71 804.35,-875.6 818,-863.22 831.99,-850.51 830.88,-842.56 846,-831.22 853.87,-825.31 863.09,-820.17 872.06,-815.9"/>
<polygon fill="#3a6ea5" stroke="#3a6ea5" stroke-width="1.3" points="873.38,-818.38 879.5,-812.52 871.06,-813.28 873.38,-818.38"/>
</g>
<!-- Support_Plumbing_Instruction&#45;&gt;Platform_Common_platform -->
<g id="edge56" class="edge">
<title>Support_Plumbing_Instruction&#45;&gt;Platform_Common_platform</title>
<path fill="none" stroke="#3a6ea5" stroke-width="1.3" stroke-dasharray="5,2" d="M861.79,-847.01C855.57,-842.73 849.99,-837.53 846,-831.22 806.93,-769.47 860.95,-233.32 818,-174.22 815.87,-171.28 813.38,-168.67 810.63,-166.34"/>
<polygon fill="#3a6ea5" stroke="#3a6ea5" stroke-width="1.3" points="811.93,-163.81 803.8,-161.39 808.64,-168.35 811.93,-163.81"/>
</g>
<!-- Support_Plumbing_Instruction&#45;&gt;Type_Basic -->
<g id="edge57" class="edge">
<title>Support_Plumbing_Instruction&#45;&gt;Type_Basic</title>
<path fill="none" stroke="#3a6ea5" stroke-width="1.3" stroke-dasharray="5,2" d="M967.44,-847.19C974.22,-842.91 980.38,-837.65 985,-831.22 1037.54,-758 1039.87,-468.52 1039.31,-379.44"/>
<polygon fill="#3a6ea5" stroke="#3a6ea5" stroke-width="1.3" points="1042.11,-379.2 1039.25,-371.22 1036.51,-379.25 1042.11,-379.2"/>
</g>
<!-- Support_Repository&#45;&gt;Type_Basic -->
<g id="edge58" class="edge">
<title>Support_Repository&#45;&gt;Type_Basic</title>
<path fill="none" stroke="#3a6ea5" stroke-width="1.3" stroke-dasharray="5,2" d="M592.52,-851.26C647.26,-836.67 745.66,-805.84 818,-757.22 907.49,-697.06 933.69,-676.06 985,-581.22 1021.11,-514.46 1033.27,-423.92 1037.21,-379.71"/>
<polygon fill="#3a6ea5" stroke="#3a6ea5" stroke-width="1.3" points="1040.02,-379.71 1037.89,-371.5 1034.43,-379.24 1040.02,-379.71"/>
</g>
<!-- Target_V71_EK_hello_world -->
<g id="node18" class="node">
<title>Target_V71_EK_hello_world</title>
<path fill="#f7e4e4" stroke="#8a3030" d="M142,-284.22C142,-284.22 28,-284.22 28,-284.22 22,-284.22 16,-278.22 16,-272.22 16,-272.22 16,-260.22 16,-260.22 16,-254.22 22,-248.22 28,-248.22 28,-248.22 142,-248.22 142,-248.22 148,-248.22 154,-254.22 154,-260.22 154,-260.22 154,-272.22 154,-272.22 154,-278.22 148,-284.22 142,-284.22"/>
<text text-anchor="middle" x="85" y="-269.82" font-family="Consolas" font-size="13.00">Target/</text>
<text text-anchor="middle" x="85" y="-255.82" font-family="Consolas" font-size="13.00">V71_EK_hello_world</text>
</g>
<!-- Target_V71_EK_hello_world&#45;&gt;Application_Hello_world -->
<g id="edge59" class="edge">
<title>Target_V71_EK_hello_world&#45;&gt;Application_Hello_world</title>
<path fill="none" stroke="#3a6ea5" stroke-width="1.3" stroke-dasharray="5,2" d="M89.61,-284.23C109.8,-385.07 208.79,-879.37 232.76,-999.07"/>
<polygon fill="#3a6ea5" stroke="#3a6ea5" stroke-width="1.3" points="230.04,-999.74 234.36,-1007.03 235.53,-998.64 230.04,-999.74"/>
</g>
<!-- Target_V71_EK_hello_world&#45;&gt;Board_V71_EK -->
<g id="edge60" class="edge">
<title>Target_V71_EK_hello_world&#45;&gt;Board_V71_EK</title>
<path fill="none" stroke="#3a6ea5" stroke-width="1.3" stroke-dasharray="5,2" d="M154.14,-266.22C211.38,-266.22 290.9,-266.22 336.35,-266.22"/>
<polygon fill="#3a6ea5" stroke="#3a6ea5" stroke-width="1.3" points="336.42,-269.02 344.42,-266.22 336.42,-263.42 336.42,-269.02"/>
</g>
<!-- Target_V71_EK_hello_world&#45;&gt;Type_Abstract -->
<g id="edge61" class="edge">
<title>Target_V71_EK_hello_world&#45;&gt;Type_Abstract</title>
<path fill="none" stroke="#3a6ea5" stroke-width="1.3" stroke-dasharray="5,2" d="M98.51,-248.2C134.65,-198.52 244.74,-63.22 372,-63.22 372,-63.22 372,-63.22 551.5,-63.22 670.69,-63.22 724.61,-19.15 818,-93.22 891.6,-151.59 906.72,-273.08 909.77,-326.75"/>
<polygon fill="#3a6ea5" stroke="#3a6ea5" stroke-width="1.3" points="906.99,-327.2 910.17,-335.06 912.58,-326.93 906.99,-327.2"/>
</g>
<!-- Type_Abstract&#45;&gt;Type_Basic -->
<g id="edge62" class="edge">
<title>Type_Abstract&#45;&gt;Type_Basic</title>
<path fill="none" stroke="#3a6ea5" stroke-width="1.3" stroke-dasharray="5,2" d="M947.07,-353.22C964.92,-353.22 986.64,-353.22 1004.49,-353.22"/>
<polygon fill="#3a6ea5" stroke="#3a6ea5" stroke-width="1.3" points="1004.9,-356.02 1012.9,-353.22 1004.9,-350.42 1004.9,-356.02"/>
</g>
<!-- Type_Generic&#45;&gt;Type_Abstract -->
<g id="edge63" class="edge">
<title>Type_Generic&#45;&gt;Type_Abstract</title>
<path fill="none" stroke="#3a6ea5" stroke-width="1.3" stroke-dasharray="5,2" d="M776.54,-353.22C802.28,-353.22 839.16,-353.22 867.7,-353.22"/>
<polygon fill="#3a6ea5" stroke="#3a6ea5" stroke-width="1.3" points="867.9,-356.02 875.9,-353.22 867.9,-350.42 867.9,-356.02"/>
</g>
<!-- Utility&#45;&gt;Type_Basic -->
<g id="edge64" class="edge">
<title>Utility&#45;&gt;Type_Basic</title>
<path fill="none" stroke="#3a6ea5" stroke-width="1.3" stroke-dasharray="5,2" d="M943.77,-794.91C958.56,-790.29 975.11,-782.44 985,-769.22 1031.4,-707.17 1037.97,-460.95 1038.87,-379.51"/>
<polygon fill="#3a6ea5" stroke="#3a6ea5" stroke-width="1.3" points="1041.67,-379.31 1038.95,-371.29 1036.07,-379.26 1041.67,-379.31"/>
</g>
</g>
</svg>
