<?xml version="1.0" encoding="UTF-8" standalone="no"?>
<!DOCTYPE svg PUBLIC "-//W3C//DTD SVG 1.1//EN"
 "http://www.w3.org/Graphics/SVG/1.1/DTD/svg11.dtd">
<!-- Generated by graphviz version 2.44.1 (20200629.0846)
 -->
<!-- Title: module_deps Pages: 1 -->
<svg width="1477pt" height="901pt"
 viewBox="0.00 0.00 1477.00 901.15" xmlns="http://www.w3.org/2000/svg" xmlns:xlink="http://www.w3.org/1999/xlink">
<g id="graph0" class="graph" transform="scale(1 1) rotate(0) translate(4 897.15)">
<title>module_deps</title>
<polygon fill="white" stroke="transparent" points="-4,4 -4,-897.15 1473,-897.15 1473,4 -4,4"/>
<text text-anchor="middle" x="734.5" y="-35.6" font-family="Consolas" font-size="13.00">Module dependency graph — one node per source directory actually built by CMake</text>
<text text-anchor="middle" x="734.5" y="-21.6" font-family="Consolas" font-size="13.00">(preset V71_hello_world: APP=Hello_world, TARGET=V71_EK_hello_world, BOARD=V71_EK, PLATFORM=SamV71) &#160;&#160;(arrow: module → module it depends on)</text>
<text text-anchor="middle" x="734.5" y="-7.6" font-family="Consolas" font-size="13.00">solid = #include dependency &#160;&#160;&#160;&#160;dashed = C++20 module import &#160;&#160;&#160;&#160;bold red = two&#45;way (circular) dependency between the pair</text>
<g id="clust3" class="cluster">
<title>cluster_component</title>
<polygon fill="none" stroke="#c4cdc3" stroke-dasharray="5,2" points="447.5,-740.45 447.5,-814.45 1095,-814.45 1095,-740.45 447.5,-740.45"/>
<text text-anchor="middle" x="771.25" y="-748.05" font-family="Consolas" font-size="13.00">Component</text>
</g>
<g id="clust1" class="cluster">
<title>cluster_application</title>
<polygon fill="none" stroke="#c4cdc3" stroke-dasharray="5,2" points="229,-630.45 229,-724.45 840,-724.45 840,-630.45 229,-630.45"/>
<text text-anchor="middle" x="534.5" y="-638.05" font-family="Consolas" font-size="13.00">Application</text>
</g>
<g id="clust4" class="cluster">
<title>cluster_domain</title>
<polygon fill="none" stroke="#c4cdc3" stroke-dasharray="5,2" points="723,-548.45 723,-622.45 1108.5,-622.45 1108.5,-548.45 723,-548.45"/>
<text text-anchor="middle" x="915.75" y="-556.05" font-family="Consolas" font-size="13.00">Domain</text>
</g>
<g id="clust6" class="cluster">
<title>cluster_support</title>
<polygon fill="none" stroke="#c4cdc3" stroke-dasharray="5,2" points="682.5,-328.45 682.5,-510.45 1371,-510.45 1371,-328.45 682.5,-328.45"/>
<text text-anchor="middle" x="1026.75" y="-336.05" font-family="Consolas" font-size="13.00">Support</text>
</g>
<g id="clust2" class="cluster">
<title>cluster_board</title>
<polygon fill="none" stroke="#c4cdc3" stroke-dasharray="5,2" points="464,-239.45 464,-313.45 578,-313.45 578,-239.45 464,-239.45"/>
<text text-anchor="middle" x="521" y="-247.05" font-family="Consolas" font-size="13.00">Board</text>
</g>
<g id="clust7" class="cluster">
<title>cluster_target</title>
<polygon fill="none" stroke="#c4cdc3" stroke-dasharray="5,2" points="8,-239.45 8,-313.45 209,-313.45 209,-239.45 8,-239.45"/>
<text text-anchor="middle" x="108.5" y="-247.05" font-family="Consolas" font-size="13.00">Target</text>
</g>
<g id="clust5" class="cluster">
<title>cluster_platform</title>
<polygon fill="none" stroke="#c4cdc3" stroke-dasharray="5,2" points="625,-162.45 625,-290.45 1119,-290.45 1119,-162.45 625,-162.45"/>
<text text-anchor="middle" x="872" y="-170.05" font-family="Consolas" font-size="13.00">Platform</text>
</g>
<g id="clust8" class="cluster">
<title>cluster_type</title>
<polygon fill="none" stroke="#c4cdc3" stroke-dasharray="5,2" points="1200,-216.45 1200,-290.45 1461,-290.45 1461,-216.45 1200,-216.45"/>
<text text-anchor="middle" x="1330.5" y="-224.05" font-family="Consolas" font-size="13.00">Type</text>
</g>
<g id="clust9" class="cluster">
<title>cluster_utility</title>
<polygon fill="none" stroke="#c4cdc3" stroke-dasharray="5,2" points="1220,-518.45 1220,-592.45 1300,-592.45 1300,-518.45 1220,-518.45"/>
<text text-anchor="middle" x="1260" y="-526.05" font-family="Consolas" font-size="13.00">Utility</text>
</g>
<!-- Application/Hello_world -->
<g id="node1" class="node">
<title>Application/Hello_world</title>
<path fill="#e4ecf7" stroke="#31537a" d="M397,-696.45C397,-696.45 249,-696.45 249,-696.45 243,-696.45 237,-690.45 237,-684.45 237,-684.45 237,-672.45 237,-672.45 237,-666.45 243,-660.45 249,-660.45 249,-660.45 397,-660.45 397,-660.45 403,-660.45 409,-666.45 409,-672.45 409,-672.45 409,-684.45 409,-684.45 409,-690.45 403,-696.45 397,-696.45"/>
<text text-anchor="middle" x="323" y="-675.05" font-family="Consolas" font-size="13.00">Application/Hello_world</text>
</g>
<!-- Application/Provider -->
<g id="node2" class="node">
<title>Application/Provider</title>
<path fill="#e4ecf7" stroke="#31537a" d="M585,-696.45C585,-696.45 457,-696.45 457,-696.45 451,-696.45 445,-690.45 445,-684.45 445,-684.45 445,-672.45 445,-672.45 445,-666.45 451,-660.45 457,-660.45 457,-660.45 585,-660.45 585,-660.45 591,-660.45 597,-666.45 597,-672.45 597,-672.45 597,-684.45 597,-684.45 597,-690.45 591,-696.45 585,-696.45"/>
<text text-anchor="middle" x="521" y="-675.05" font-family="Consolas" font-size="13.00">Application/Provider</text>
</g>
<!-- Application/Hello_world&#45;&gt;Application/Provider -->
<g id="edge1" class="edge">
<title>Application/Hello_world&#45;&gt;Application/Provider</title>
<path fill="none" stroke="#c0392b" stroke-width="2.2" d="M409.11,-671.75C418.3,-671.68 427.65,-671.68 436.81,-671.77"/>
<polygon fill="#c0392b" stroke="#c0392b" stroke-width="2.2" points="436.78,-674.57 444.81,-671.86 436.85,-668.97 436.78,-674.57"/>
</g>
<!-- Application/Support -->
<g id="node3" class="node">
<title>Application/Support</title>
<path fill="#e4ecf7" stroke="#31537a" d="M820,-714.45C820,-714.45 699,-714.45 699,-714.45 693,-714.45 687,-708.45 687,-702.45 687,-702.45 687,-690.45 687,-690.45 687,-684.45 693,-678.45 699,-678.45 699,-678.45 820,-678.45 820,-678.45 826,-678.45 832,-684.45 832,-690.45 832,-690.45 832,-702.45 832,-702.45 832,-708.45 826,-714.45 820,-714.45"/>
<text text-anchor="middle" x="759.5" y="-693.05" font-family="Consolas" font-size="13.00">Application/Support</text>
</g>
<!-- Application/Hello_world&#45;&gt;Application/Support -->
<g id="edge3" class="edge">
<title>Application/Hello_world&#45;&gt;Application/Support</title>
<path fill="none" stroke="#c0392b" stroke-width="2.2" d="M409.21,-691C421.16,-693.2 433.34,-695.16 445,-696.45 524.28,-705.19 615.48,-700.98 679,-697.46"/>
<polygon fill="#c0392b" stroke="#c0392b" stroke-width="2.2" points="679.16,-700.26 686.99,-697.02 678.85,-694.67 679.16,-700.26"/>
</g>
<!-- Component/IDE3380 -->
<g id="node5" class="node">
<title>Component/IDE3380</title>
<path fill="#f1e4f7" stroke="#6a3a7a" d="M574.5,-806.45C574.5,-806.45 467.5,-806.45 467.5,-806.45 461.5,-806.45 455.5,-800.45 455.5,-794.45 455.5,-794.45 455.5,-782.45 455.5,-782.45 455.5,-776.45 461.5,-770.45 467.5,-770.45 467.5,-770.45 574.5,-770.45 574.5,-770.45 580.5,-770.45 586.5,-776.45 586.5,-782.45 586.5,-782.45 586.5,-794.45 586.5,-794.45 586.5,-800.45 580.5,-806.45 574.5,-806.45"/>
<text text-anchor="middle" x="521" y="-785.05" font-family="Consolas" font-size="13.00">Component/IDE3380</text>
</g>
<!-- Application/Hello_world&#45;&gt;Component/IDE3380 -->
<g id="edge5" class="edge">
<title>Application/Hello_world&#45;&gt;Component/IDE3380</title>
<path fill="none" stroke="#c0392b" stroke-width="2.2" d="M366.53,-696.64C403.37,-715.71 455.82,-745.34 488.86,-765.88"/>
<polygon fill="#c0392b" stroke="#c0392b" stroke-width="2.2" points="487.75,-768.49 496.02,-770.38 490.73,-763.75 487.75,-768.49"/>
</g>
<!-- Component/SiPM_bias -->
<g id="node6" class="node">
<title>Component/SiPM_bias</title>
<path fill="#f1e4f7" stroke="#6a3a7a" d="M820,-806.45C820,-806.45 699,-806.45 699,-806.45 693,-806.45 687,-800.45 687,-794.45 687,-794.45 687,-782.45 687,-782.45 687,-776.45 693,-770.45 699,-770.45 699,-770.45 820,-770.45 820,-770.45 826,-770.45 832,-776.45 832,-782.45 832,-782.45 832,-794.45 832,-794.45 832,-800.45 826,-806.45 820,-806.45"/>
<text text-anchor="middle" x="759.5" y="-785.05" font-family="Consolas" font-size="13.00">Component/SiPM_bias</text>
</g>
<!-- Application/Hello_world&#45;&gt;Component/SiPM_bias -->
<g id="edge7" class="edge">
<title>Application/Hello_world&#45;&gt;Component/SiPM_bias</title>
<path fill="none" stroke="#c0392b" stroke-width="2.2" d="M330.42,-696.72C344.49,-733.54 381.89,-815.9 445,-848.45 536.34,-895.55 659.87,-842.92 721.02,-810.33"/>
<polygon fill="#c0392b" stroke="#c0392b" stroke-width="2.2" points="722.45,-812.74 728.16,-806.47 719.79,-807.81 722.45,-812.74"/>
</g>
<!-- Domain -->
<g id="node8" class="node">
<title>Domain</title>
<path fill="#e4f7ec" stroke="#1b6f60" d="M776,-614.45C776,-614.45 743,-614.45 743,-614.45 737,-614.45 731,-608.45 731,-602.45 731,-602.45 731,-590.45 731,-590.45 731,-584.45 737,-578.45 743,-578.45 743,-578.45 776,-578.45 776,-578.45 782,-578.45 788,-584.45 788,-590.45 788,-590.45 788,-602.45 788,-602.45 788,-608.45 782,-614.45 776,-614.45"/>
<text text-anchor="middle" x="759.5" y="-593.05" font-family="Consolas" font-size="13.00">Domain</text>
</g>
<!-- Application/Hello_world&#45;&gt;Domain -->
<g id="edge17" class="edge">
<title>Application/Hello_world&#45;&gt;Domain</title>
<path fill="none" stroke="#7a8a80" d="M402.32,-660.42C416.5,-657.31 431.17,-654.2 445,-651.45 545.21,-631.49 664.21,-611.67 722.58,-602.2"/>
<polygon fill="#7a8a80" stroke="#7a8a80" points="723.29,-604.92 730.74,-600.88 722.4,-599.39 723.29,-604.92"/>
</g>
<!-- Support/Console -->
<g id="node13" class="node">
<title>Support/Console</title>
<path fill="#eef1ee" stroke="#455148" d="M806.5,-394.45C806.5,-394.45 712.5,-394.45 712.5,-394.45 706.5,-394.45 700.5,-388.45 700.5,-382.45 700.5,-382.45 700.5,-370.45 700.5,-370.45 700.5,-364.45 706.5,-358.45 712.5,-358.45 712.5,-358.45 806.5,-358.45 806.5,-358.45 812.5,-358.45 818.5,-364.45 818.5,-370.45 818.5,-370.45 818.5,-382.45 818.5,-382.45 818.5,-388.45 812.5,-394.45 806.5,-394.45"/>
<text text-anchor="middle" x="759.5" y="-373.05" font-family="Consolas" font-size="13.00">Support/Console</text>
</g>
<!-- Application/Hello_world&#45;&gt;Support/Console -->
<g id="edge9" class="edge">
<title>Application/Hello_world&#45;&gt;Support/Console</title>
<path fill="none" stroke="#c0392b" stroke-width="2.2" d="M330,-660.4C343.97,-621.03 382.32,-526.7 445,-473.45 510.42,-417.87 542.63,-427.6 625,-403.45 646.72,-397.08 670.87,-391.7 692.59,-387.45"/>
<polygon fill="#c0392b" stroke="#c0392b" stroke-width="2.2" points="693.15,-390.2 700.48,-385.94 692.09,-384.7 693.15,-390.2"/>
</g>
<!-- Support/Repository -->
<g id="node14" class="node">
<title>Support/Repository</title>
<path fill="#eef1ee" stroke="#455148" d="M816.5,-448.45C816.5,-448.45 702.5,-448.45 702.5,-448.45 696.5,-448.45 690.5,-442.45 690.5,-436.45 690.5,-436.45 690.5,-424.45 690.5,-424.45 690.5,-418.45 696.5,-412.45 702.5,-412.45 702.5,-412.45 816.5,-412.45 816.5,-412.45 822.5,-412.45 828.5,-418.45 828.5,-424.45 828.5,-424.45 828.5,-436.45 828.5,-436.45 828.5,-442.45 822.5,-448.45 816.5,-448.45"/>
<text text-anchor="middle" x="759.5" y="-427.05" font-family="Consolas" font-size="13.00">Support/Repository</text>
</g>
<!-- Application/Hello_world&#45;&gt;Support/Repository -->
<g id="edge18" class="edge">
<title>Application/Hello_world&#45;&gt;Support/Repository</title>
<path fill="none" stroke="#7a8a80" d="M347.58,-660.22C413,-609.78 594.02,-471.15 625,-457.45 642.87,-449.55 663.1,-443.93 682.32,-439.95"/>
<polygon fill="#7a8a80" stroke="#7a8a80" points="682.89,-442.69 690.2,-438.4 681.81,-437.2 682.89,-442.69"/>
</g>
<!-- Type/Abstract -->
<g id="node20" class="node">
<title>Type/Abstract</title>
<path fill="#eef1ee" stroke="#455148" d="M1300,-282.45C1300,-282.45 1220,-282.45 1220,-282.45 1214,-282.45 1208,-276.45 1208,-270.45 1208,-270.45 1208,-258.45 1208,-258.45 1208,-252.45 1214,-246.45 1220,-246.45 1220,-246.45 1300,-246.45 1300,-246.45 1306,-246.45 1312,-252.45 1312,-258.45 1312,-258.45 1312,-270.45 1312,-270.45 1312,-276.45 1306,-282.45 1300,-282.45"/>
<text text-anchor="middle" x="1260" y="-261.05" font-family="Consolas" font-size="13.00">Type/Abstract</text>
</g>
<!-- Application/Hello_world&#45;&gt;Type/Abstract -->
<g id="edge19" class="edge">
<title>Application/Hello_world&#45;&gt;Type/Abstract</title>
<path fill="none" stroke="#7a8a80" d="M324.39,-660.41C326.65,-596.08 341.9,-374.38 445,-235.45 501.29,-159.59 534.23,-148.58 625,-122.45 730.92,-91.96 1019.5,-81.47 1121,-124.45 1176.75,-148.05 1221.49,-206.16 1243.72,-239.63"/>
<polygon fill="#7a8a80" stroke="#7a8a80" points="1241.4,-241.2 1248.12,-246.37 1246.1,-238.14 1241.4,-241.2"/>
</g>
<!-- Application/Provider&#45;&gt;Application/Hello_world -->
<g id="edge2" class="edge">
<title>Application/Provider&#45;&gt;Application/Hello_world</title>
<path fill="none" stroke="#c0392b" stroke-width="2.2" d="M444.81,-685.03C435.78,-685.17 426.47,-685.22 417.22,-685.19"/>
<polygon fill="#c0392b" stroke="#c0392b" stroke-width="2.2" points="417.13,-682.39 409.11,-685.15 417.1,-687.99 417.13,-682.39"/>
</g>
<!-- Application/Provider&#45;&gt;Application/Support -->
<g id="edge20" class="edge">
<title>Application/Provider&#45;&gt;Application/Support</title>
<path fill="none" stroke="#7a8a80" d="M597.16,-684.17C623.14,-686.15 652.34,-688.37 678.69,-690.37"/>
<polygon fill="#7a8a80" stroke="#7a8a80" points="678.58,-693.17 686.77,-690.99 679,-687.59 678.58,-693.17"/>
</g>
<!-- Application/Provider&#45;&gt;Component/IDE3380 -->
<g id="edge21" class="edge">
<title>Application/Provider&#45;&gt;Component/IDE3380</title>
<path fill="none" stroke="#7a8a80" d="M521,-696.49C521,-718.35 521,-740.22 521,-762.08"/>
<polygon fill="#7a8a80" stroke="#7a8a80" points="518.2,-762.13 521,-770.13 523.8,-762.13 518.2,-762.13"/>
</g>
<!-- Application/Provider&#45;&gt;Component/SiPM_bias -->
<g id="edge22" class="edge">
<title>Application/Provider&#45;&gt;Component/SiPM_bias</title>
<path fill="none" stroke="#7a8a80" d="M558.58,-696.53C578.21,-706.15 602.85,-718.1 625,-728.45 653.08,-741.57 684.7,-755.81 710.12,-767.12"/>
<polygon fill="#7a8a80" stroke="#7a8a80" points="709.01,-769.69 717.46,-770.38 711.28,-764.57 709.01,-769.69"/>
</g>
<!-- Domain/Generated_code -->
<g id="node9" class="node">
<title>Domain/Generated_code</title>
<path fill="#e4f7ec" stroke="#1b6f60" d="M1088.5,-614.45C1088.5,-614.45 954.5,-614.45 954.5,-614.45 948.5,-614.45 942.5,-608.45 942.5,-602.45 942.5,-602.45 942.5,-590.45 942.5,-590.45 942.5,-584.45 948.5,-578.45 954.5,-578.45 954.5,-578.45 1088.5,-578.45 1088.5,-578.45 1094.5,-578.45 1100.5,-584.45 1100.5,-590.45 1100.5,-590.45 1100.5,-602.45 1100.5,-602.45 1100.5,-608.45 1094.5,-614.45 1088.5,-614.45"/>
<text text-anchor="middle" x="1021.5" y="-593.05" font-family="Consolas" font-size="13.00">Domain/Generated_code</text>
</g>
<!-- Application/Provider&#45;&gt;Domain/Generated_code -->
<g id="edge23" class="edge">
<title>Application/Provider&#45;&gt;Domain/Generated_code</title>
<path fill="none" stroke="#7a8a80" d="M597.11,-668.18C670.83,-657.84 786.39,-640.96 886,-623.45 901.72,-620.68 918.43,-617.52 934.54,-614.34"/>
<polygon fill="#7a8a80" stroke="#7a8a80" points="935.08,-617.09 942.39,-612.79 933.99,-611.6 935.08,-617.09"/>
</g>
<!-- Application/Provider&#45;&gt;Support/Repository -->
<g id="edge24" class="edge">
<title>Application/Provider&#45;&gt;Support/Repository</title>
<path fill="none" stroke="#7a8a80" d="M536.75,-660.19C553.57,-638.54 580.81,-600.81 597,-564.45 617,-519.54 589.27,-491.21 625,-457.45 640.47,-442.83 661.56,-435.15 682.41,-431.34"/>
<polygon fill="#7a8a80" stroke="#7a8a80" points="682.92,-434.1 690.38,-430.07 682.03,-428.57 682.92,-434.1"/>
</g>
<!-- Support/Plumbing/CLI_parser -->
<g id="node16" class="node">
<title>Support/Plumbing/CLI_parser</title>
<path fill="#f7f0e4" stroke="#8a5a18" d="M1109,-484.45C1109,-484.45 934,-484.45 934,-484.45 928,-484.45 922,-478.45 922,-472.45 922,-472.45 922,-460.45 922,-460.45 922,-454.45 928,-448.45 934,-448.45 934,-448.45 1109,-448.45 1109,-448.45 1115,-448.45 1121,-454.45 1121,-460.45 1121,-460.45 1121,-472.45 1121,-472.45 1121,-478.45 1115,-484.45 1109,-484.45"/>
<text text-anchor="middle" x="1021.5" y="-463.05" font-family="Consolas" font-size="13.00">Support/Plumbing/CLI_parser</text>
</g>
<!-- Application/Provider&#45;&gt;Support/Plumbing/CLI_parser -->
<g id="edge25" class="edge">
<title>Application/Provider&#45;&gt;Support/Plumbing/CLI_parser</title>
<path fill="none" stroke="#7a8a80" d="M530.04,-660.44C544.38,-630.66 577.4,-571.74 625,-544.45 726.43,-486.29 772.01,-537.46 886,-511.45 912.97,-505.29 942.17,-495.88 966.45,-487.24"/>
<polygon fill="#7a8a80" stroke="#7a8a80" points="967.57,-489.82 974.15,-484.47 965.68,-484.55 967.57,-489.82"/>
</g>
<!-- Application/Support&#45;&gt;Application/Hello_world -->
<g id="edge4" class="edge">
<title>Application/Support&#45;&gt;Application/Hello_world</title>
<path fill="none" stroke="#c0392b" stroke-width="2.2" d="M686.99,-711.19C623.3,-718.59 527.67,-723.56 445,-714.45 419.26,-711.61 390.99,-705.48 368.25,-698.84"/>
<polygon fill="#c0392b" stroke="#c0392b" stroke-width="2.2" points="368.92,-696.11 360.45,-696.47 367.29,-701.47 368.92,-696.11"/>
</g>
<!-- Application/Support&#45;&gt;Component/IDE3380 -->
<g id="edge11" class="edge">
<title>Application/Support&#45;&gt;Component/IDE3380</title>
<path fill="none" stroke="#c0392b" stroke-width="2.2" d="M686.69,-706.79C666.48,-712.46 644.67,-719.61 625,-727.45 598.37,-738.06 569.32,-753.06 548.88,-765.8"/>
<polygon fill="#c0392b" stroke="#c0392b" stroke-width="2.2" points="547.25,-763.52 542.03,-770.2 550.27,-768.23 547.25,-763.52"/>
</g>
<!-- Application/Support&#45;&gt;Component/SiPM_bias -->
<g id="edge26" class="edge">
<title>Application/Support&#45;&gt;Component/SiPM_bias</title>
<path fill="none" stroke="#7a8a80" d="M759.5,-714.78C759.5,-730.54 759.5,-746.31 759.5,-762.07"/>
<polygon fill="#7a8a80" stroke="#7a8a80" points="756.7,-762.32 759.5,-770.32 762.3,-762.32 756.7,-762.32"/>
</g>
<!-- Application/Support&#45;&gt;Support/Repository -->
<g id="edge27" class="edge">
<title>Application/Support&#45;&gt;Support/Repository</title>
<path fill="none" stroke="#7a8a80" d="M690.18,-678.39C659.8,-666.51 627.37,-647.44 611,-617.45 594.92,-588 594.92,-495.9 611,-466.45 624.83,-441.12 653.71,-430.82 682.37,-427.34"/>
<polygon fill="#7a8a80" stroke="#7a8a80" points="682.75,-430.12 690.43,-426.54 682.19,-424.55 682.75,-430.12"/>
</g>
<!-- Type -->
<g id="node19" class="node">
<title>Type</title>
<path fill="#eef1ee" stroke="#455148" d="M1441,-282.45C1441,-282.45 1411,-282.45 1411,-282.45 1405,-282.45 1399,-276.45 1399,-270.45 1399,-270.45 1399,-258.45 1399,-258.45 1399,-252.45 1405,-246.45 1411,-246.45 1411,-246.45 1441,-246.45 1441,-246.45 1447,-246.45 1453,-252.45 1453,-258.45 1453,-258.45 1453,-270.45 1453,-270.45 1453,-276.45 1447,-282.45 1441,-282.45"/>
<text text-anchor="middle" x="1426" y="-261.05" font-family="Consolas" font-size="13.00">Type</text>
</g>
<!-- Application/Support&#45;&gt;Type -->
<g id="edge28" class="edge">
<title>Application/Support&#45;&gt;Type</title>
<path fill="none" stroke="#7a8a80" d="M832.05,-708.66C959.65,-725.94 1226.6,-741.01 1371,-596.45 1413.84,-553.56 1422.71,-361.86 1424.53,-290.94"/>
<polygon fill="#7a8a80" stroke="#7a8a80" points="1427.34,-290.59 1424.73,-282.53 1421.74,-290.46 1427.34,-290.59"/>
</g>
<!-- Board/V71_EK -->
<g id="node4" class="node">
<title>Board/V71_EK</title>
<path fill="#f7ecdf" stroke="#8a5a30" d="M558,-305.45C558,-305.45 484,-305.45 484,-305.45 478,-305.45 472,-299.45 472,-293.45 472,-293.45 472,-281.45 472,-281.45 472,-275.45 478,-269.45 484,-269.45 484,-269.45 558,-269.45 558,-269.45 564,-269.45 570,-275.45 570,-281.45 570,-281.45 570,-293.45 570,-293.45 570,-299.45 564,-305.45 558,-305.45"/>
<text text-anchor="middle" x="521" y="-284.05" font-family="Consolas" font-size="13.00">Board/V71_EK</text>
</g>
<!-- Board/V71_EK&#45;&gt;Domain -->
<g id="edge29" class="edge">
<title>Board/V71_EK&#45;&gt;Domain</title>
<path fill="none" stroke="#7a8a80" d="M526.33,-305.66C536.93,-346.99 567.59,-449.38 625,-514.45 652.17,-545.25 693.74,-568.24 723.27,-581.92"/>
<polygon fill="#7a8a80" stroke="#7a8a80" points="722.43,-584.62 730.87,-585.37 724.74,-579.52 722.43,-584.62"/>
</g>
<!-- Platform/SamV71_platform -->
<g id="node10" class="node">
<title>Platform/SamV71_platform</title>
<path fill="#dff3e6" stroke="#1b6f60" d="M837,-282.45C837,-282.45 682,-282.45 682,-282.45 676,-282.45 670,-276.45 670,-270.45 670,-270.45 670,-258.45 670,-258.45 670,-252.45 676,-246.45 682,-246.45 682,-246.45 837,-246.45 837,-246.45 843,-246.45 849,-252.45 849,-258.45 849,-258.45 849,-270.45 849,-270.45 849,-276.45 843,-282.45 837,-282.45"/>
<text text-anchor="middle" x="759.5" y="-261.05" font-family="Consolas" font-size="13.00">Platform/SamV71_platform</text>
</g>
<!-- Board/V71_EK&#45;&gt;Platform/SamV71_platform -->
<g id="edge13" class="edge">
<title>Board/V71_EK&#45;&gt;Platform/SamV71_platform</title>
<path fill="none" stroke="#c0392b" stroke-width="2.2" d="M570.14,-288.33C596.54,-286.78 630.23,-283.87 661.8,-280.5"/>
<polygon fill="#c0392b" stroke="#c0392b" stroke-width="2.2" points="662.12,-283.28 669.77,-279.64 661.52,-277.72 662.12,-283.28"/>
</g>
<!-- Platform/Common_platform -->
<g id="node11" class="node">
<title>Platform/Common_platform</title>
<path fill="#dff3e6" stroke="#1b6f60" d="M1099,-282.45C1099,-282.45 944,-282.45 944,-282.45 938,-282.45 932,-276.45 932,-270.45 932,-270.45 932,-258.45 932,-258.45 932,-252.45 938,-246.45 944,-246.45 944,-246.45 1099,-246.45 1099,-246.45 1105,-246.45 1111,-252.45 1111,-258.45 1111,-258.45 1111,-270.45 1111,-270.45 1111,-276.45 1105,-282.45 1099,-282.45"/>
<text text-anchor="middle" x="1021.5" y="-261.05" font-family="Consolas" font-size="13.00">Platform/Common_platform</text>
</g>
<!-- Board/V71_EK&#45;&gt;Platform/Common_platform -->
<g id="edge30" class="edge">
<title>Board/V71_EK&#45;&gt;Platform/Common_platform</title>
<path fill="none" stroke="#7a8a80" d="M570.2,-289.71C587.48,-290.41 607.11,-291.1 625,-291.45 740.98,-293.7 770.57,-302.92 886,-291.45 902.29,-289.83 919.54,-287.13 936.04,-284.05"/>
<polygon fill="#7a8a80" stroke="#7a8a80" points="936.75,-286.77 944.08,-282.51 935.7,-281.27 936.75,-286.77"/>
</g>
<!-- Board/V71_EK&#45;&gt;Type/Abstract -->
<g id="edge31" class="edge">
<title>Board/V71_EK&#45;&gt;Type/Abstract</title>
<path fill="none" stroke="#7a8a80" d="M530.12,-268.97C544.36,-239.19 576.97,-181.56 625,-158.45 724.32,-110.65 1016.64,-122.99 1121,-158.45 1168.4,-174.55 1212.26,-214.22 1237.3,-240.2"/>
<polygon fill="#7a8a80" stroke="#7a8a80" points="1235.42,-242.29 1242.95,-246.17 1239.48,-238.44 1235.42,-242.29"/>
</g>
<!-- Component/IDE3380&#45;&gt;Application/Hello_world -->
<g id="edge6" class="edge">
<title>Component/IDE3380&#45;&gt;Application/Hello_world</title>
<path fill="none" stroke="#c0392b" stroke-width="2.2" d="M477.52,-770.28C440.69,-751.22 388.25,-721.6 355.19,-701.05"/>
<polygon fill="#c0392b" stroke="#c0392b" stroke-width="2.2" points="356.3,-698.44 348.03,-696.55 353.32,-703.18 356.3,-698.44"/>
</g>
<!-- Component/IDE3380&#45;&gt;Application/Support -->
<g id="edge12" class="edge">
<title>Component/IDE3380&#45;&gt;Application/Support</title>
<path fill="none" stroke="#c0392b" stroke-width="2.2" d="M570.18,-770.4C587.2,-762.14 606.67,-752.75 625,-745.45 652.4,-734.53 683.97,-724.94 709.53,-716.92"/>
<polygon fill="#c0392b" stroke="#c0392b" stroke-width="2.2" points="710.47,-719.56 717.26,-714.48 708.79,-714.21 710.47,-719.56"/>
</g>
<!-- Component/IDE3380&#45;&gt;Component/SiPM_bias -->
<g id="edge32" class="edge">
<title>Component/IDE3380&#45;&gt;Component/SiPM_bias</title>
<path fill="none" stroke="#7a8a80" d="M586.62,-788.45C615,-788.45 648.61,-788.45 678.54,-788.45"/>
<polygon fill="#7a8a80" stroke="#7a8a80" points="678.88,-791.25 686.88,-788.45 678.88,-785.65 678.88,-791.25"/>
</g>
<!-- Component/IDE3380&#45;&gt;Support/Repository -->
<g id="edge33" class="edge">
<title>Component/IDE3380&#45;&gt;Support/Repository</title>
<path fill="none" stroke="#7a8a80" d="M555.28,-770.25C570.62,-760.06 587.5,-745.87 597,-728.45 626,-675.3 584.31,-502.28 625,-457.45 639.59,-441.38 660.87,-433.36 682.18,-429.69"/>
<polygon fill="#7a8a80" stroke="#7a8a80" points="682.83,-432.42 690.33,-428.48 682.01,-426.88 682.83,-432.42"/>
</g>
<!-- Support/Plumbing/Instruction -->
<g id="node17" class="node">
<title>Support/Plumbing/Instruction</title>
<path fill="#f7f0e4" stroke="#8a5a18" d="M1351,-488.45C1351,-488.45 1169,-488.45 1169,-488.45 1163,-488.45 1157,-482.45 1157,-476.45 1157,-476.45 1157,-464.45 1157,-464.45 1157,-458.45 1163,-452.45 1169,-452.45 1169,-452.45 1351,-452.45 1351,-452.45 1357,-452.45 1363,-458.45 1363,-464.45 1363,-464.45 1363,-476.45 1363,-476.45 1363,-482.45 1357,-488.45 1351,-488.45"/>
<text text-anchor="middle" x="1260" y="-467.05" font-family="Consolas" font-size="13.00">Support/Plumbing/Instruction</text>
</g>
<!-- Component/IDE3380&#45;&gt;Support/Plumbing/Instruction -->
<g id="edge34" class="edge">
<title>Component/IDE3380&#45;&gt;Support/Plumbing/Instruction</title>
<path fill="none" stroke="#7a8a80" d="M585.44,-770.43C598.45,-767.13 612.11,-763.94 625,-761.45 739.8,-739.24 773.24,-759.37 886,-728.45 940.9,-713.39 1082.78,-668.64 1121,-626.45 1156.11,-587.7 1121.85,-553.16 1157,-514.45 1165.3,-505.31 1175.82,-498 1186.93,-492.16"/>
<polygon fill="#7a8a80" stroke="#7a8a80" points="1188.36,-494.57 1194.3,-488.53 1185.89,-489.55 1188.36,-494.57"/>
</g>
<!-- Component/IDE3380&#45;&gt;Type -->
<g id="edge35" class="edge">
<title>Component/IDE3380&#45;&gt;Type</title>
<path fill="none" stroke="#7a8a80" d="M569.24,-806.5C716.96,-859.55 1172.19,-996.54 1371,-753.45 1400.53,-717.35 1418.98,-386.91 1423.76,-290.65"/>
<polygon fill="#7a8a80" stroke="#7a8a80" points="1426.56,-290.71 1424.15,-282.59 1420.97,-290.44 1426.56,-290.71"/>
</g>
<!-- Component/SiPM_bias&#45;&gt;Application/Hello_world -->
<g id="edge8" class="edge">
<title>Component/SiPM_bias&#45;&gt;Application/Hello_world</title>
<path fill="none" stroke="#c0392b" stroke-width="2.2" d="M710.92,-806.47C647.3,-827.55 532.4,-854.86 445,-815.45 394.17,-792.52 356.11,-736.53 337.24,-703.66"/>
<polygon fill="#c0392b" stroke="#c0392b" stroke-width="2.2" points="339.65,-702.23 333.29,-696.62 334.77,-704.97 339.65,-702.23"/>
</g>
<!-- Component/STTS22H -->
<g id="node7" class="node">
<title>Component/STTS22H</title>
<path fill="#f1e4f7" stroke="#6a3a7a" d="M1075,-806.45C1075,-806.45 968,-806.45 968,-806.45 962,-806.45 956,-800.45 956,-794.45 956,-794.45 956,-782.45 956,-782.45 956,-776.45 962,-770.45 968,-770.45 968,-770.45 1075,-770.45 1075,-770.45 1081,-770.45 1087,-776.45 1087,-782.45 1087,-782.45 1087,-794.45 1087,-794.45 1087,-800.45 1081,-806.45 1075,-806.45"/>
<text text-anchor="middle" x="1021.5" y="-785.05" font-family="Consolas" font-size="13.00">Component/STTS22H</text>
</g>
<!-- Component/SiPM_bias&#45;&gt;Component/STTS22H -->
<g id="edge36" class="edge">
<title>Component/SiPM_bias&#45;&gt;Component/STTS22H</title>
<path fill="none" stroke="#7a8a80" d="M832.23,-788.45C868.15,-788.45 911.54,-788.45 947.61,-788.45"/>
<polygon fill="#7a8a80" stroke="#7a8a80" points="947.67,-791.25 955.67,-788.45 947.66,-785.65 947.67,-791.25"/>
</g>
<!-- Component/SiPM_bias&#45;&gt;Support/Repository -->
<g id="edge37" class="edge">
<title>Component/SiPM_bias&#45;&gt;Support/Repository</title>
<path fill="none" stroke="#7a8a80" d="M686.67,-774.3C657.13,-764.39 626.39,-747.64 611,-719.45 597.53,-694.77 597.53,-491.12 611,-466.45 624.83,-441.12 653.71,-430.82 682.37,-427.34"/>
<polygon fill="#7a8a80" stroke="#7a8a80" points="682.75,-430.12 690.43,-426.54 682.19,-424.55 682.75,-430.12"/>
</g>
<!-- Component/SiPM_bias&#45;&gt;Type -->
<g id="edge38" class="edge">
<title>Component/SiPM_bias&#45;&gt;Type</title>
<path fill="none" stroke="#7a8a80" d="M832.13,-803.04C860.05,-808.04 892.4,-812.99 922,-815.45 1132.1,-832.89 1255.78,-839 1371,-662.45 1411.27,-600.74 1421.85,-369.64 1424.32,-290.91"/>
<polygon fill="#7a8a80" stroke="#7a8a80" points="1427.13,-290.58 1424.57,-282.5 1421.53,-290.42 1427.13,-290.58"/>
</g>
<!-- Utility -->
<g id="node21" class="node">
<title>Utility</title>
<path fill="#eef1ee" stroke="#455148" d="M1280,-584.45C1280,-584.45 1240,-584.45 1240,-584.45 1234,-584.45 1228,-578.45 1228,-572.45 1228,-572.45 1228,-560.45 1228,-560.45 1228,-554.45 1234,-548.45 1240,-548.45 1240,-548.45 1280,-548.45 1280,-548.45 1286,-548.45 1292,-554.45 1292,-560.45 1292,-560.45 1292,-572.45 1292,-572.45 1292,-578.45 1286,-584.45 1280,-584.45"/>
<text text-anchor="middle" x="1260" y="-563.05" font-family="Consolas" font-size="13.00">Utility</text>
</g>
<!-- Component/SiPM_bias&#45;&gt;Utility -->
<g id="edge39" class="edge">
<title>Component/SiPM_bias&#45;&gt;Utility</title>
<path fill="none" stroke="#7a8a80" d="M832.38,-775.69C933.91,-757.5 1108.45,-725.51 1121,-718.45 1176.24,-687.35 1221.33,-626.1 1243.71,-591.6"/>
<polygon fill="#7a8a80" stroke="#7a8a80" points="1246.2,-592.92 1248.14,-584.67 1241.48,-589.9 1246.2,-592.92"/>
</g>
<!-- Domain&#45;&gt;Domain/Generated_code -->
<g id="edge15" class="edge">
<title>Domain&#45;&gt;Domain/Generated_code</title>
<path fill="none" stroke="#c0392b" stroke-width="2.2" d="M788.32,-592.08C822.96,-589.88 883.72,-589.2 934.4,-590.05"/>
<polygon fill="#c0392b" stroke="#c0392b" stroke-width="2.2" points="934.39,-592.85 942.44,-590.2 934.5,-587.25 934.39,-592.85"/>
</g>
<!-- Domain/Generated_code&#45;&gt;Domain -->
<g id="edge16" class="edge">
<title>Domain/Generated_code&#45;&gt;Domain</title>
<path fill="none" stroke="#c0392b" stroke-width="2.2" d="M942.44,-602.69C893.96,-603.68 833.95,-603.21 796.44,-601.28"/>
<polygon fill="#c0392b" stroke="#c0392b" stroke-width="2.2" points="796.47,-598.48 788.32,-600.82 796.15,-604.07 796.47,-598.48"/>
</g>
<!-- Support/Plumbing -->
<g id="node15" class="node">
<title>Support/Plumbing</title>
<path fill="#f7f0e4" stroke="#8a5a18" d="M810,-502.45C810,-502.45 709,-502.45 709,-502.45 703,-502.45 697,-496.45 697,-490.45 697,-490.45 697,-478.45 697,-478.45 697,-472.45 703,-466.45 709,-466.45 709,-466.45 810,-466.45 810,-466.45 816,-466.45 822,-472.45 822,-478.45 822,-478.45 822,-490.45 822,-490.45 822,-496.45 816,-502.45 810,-502.45"/>
<text text-anchor="middle" x="759.5" y="-481.05" font-family="Consolas" font-size="13.00">Support/Plumbing</text>
</g>
<!-- Domain/Generated_code&#45;&gt;Support/Plumbing -->
<g id="edge40" class="edge">
<title>Domain/Generated_code&#45;&gt;Support/Plumbing</title>
<path fill="none" stroke="#7a8a80" d="M978.5,-578.35C932.55,-558.56 858.95,-526.86 810.17,-505.84"/>
<polygon fill="#7a8a80" stroke="#7a8a80" points="811.02,-503.16 802.56,-502.57 808.8,-508.3 811.02,-503.16"/>
</g>
<!-- Domain/Generated_code&#45;&gt;Support/Plumbing/Instruction -->
<g id="edge41" class="edge">
<title>Domain/Generated_code&#45;&gt;Support/Plumbing/Instruction</title>
<path fill="none" stroke="#7a8a80" d="M1096.07,-578.37C1104.9,-574.55 1113.45,-569.96 1121,-564.45 1143.12,-548.31 1135.66,-531.6 1157,-514.45 1168.29,-505.38 1181.73,-497.84 1195.09,-491.72"/>
<polygon fill="#7a8a80" stroke="#7a8a80" points="1196.3,-494.25 1202.49,-488.46 1194.04,-489.12 1196.3,-494.25"/>
</g>
<!-- Platform/SamV71_platform&#45;&gt;Board/V71_EK -->
<g id="edge14" class="edge">
<title>Platform/SamV71_platform&#45;&gt;Board/V71_EK</title>
<path fill="none" stroke="#c0392b" stroke-width="2.2" d="M669.77,-266.52C639.16,-269.09 605.72,-272.58 578.41,-276.11"/>
<polygon fill="#c0392b" stroke="#c0392b" stroke-width="2.2" points="577.71,-273.38 570.14,-277.21 578.44,-278.93 577.71,-273.38"/>
</g>
<!-- Platform/SamV71_platform&#45;&gt;Platform/Common_platform -->
<g id="edge42" class="edge">
<title>Platform/SamV71_platform&#45;&gt;Platform/Common_platform</title>
<path fill="none" stroke="#7a8a80" d="M849.25,-264.45C873.17,-264.45 899.17,-264.45 923.52,-264.45"/>
<polygon fill="#7a8a80" stroke="#7a8a80" points="923.71,-267.25 931.71,-264.45 923.71,-261.65 923.71,-267.25"/>
</g>
<!-- Platform/SamV71_platform&#45;&gt;Type -->
<g id="edge43" class="edge">
<title>Platform/SamV71_platform&#45;&gt;Type</title>
<path fill="none" stroke="#7a8a80" d="M847.74,-246.37C860.6,-243.51 873.66,-240.49 886,-237.45 902.12,-233.48 905.55,-229.69 922,-227.45 1119.78,-200.49 1177.69,-187.71 1371,-237.45 1377.86,-239.21 1384.86,-241.93 1391.45,-244.96"/>
<polygon fill="#7a8a80" stroke="#7a8a80" points="1390.54,-247.64 1398.96,-248.64 1393.01,-242.61 1390.54,-247.64"/>
</g>
<!-- Platform/SamV71_platform&#45;&gt;Type/Abstract -->
<g id="edge44" class="edge">
<title>Platform/SamV71_platform&#45;&gt;Type/Abstract</title>
<path fill="none" stroke="#7a8a80" d="M849.02,-246.94C872.63,-243.01 898.2,-239.42 922,-237.45 1010.14,-230.13 1032.97,-228.92 1121,-237.45 1147.09,-239.98 1175.57,-245.13 1199.84,-250.27"/>
<polygon fill="#7a8a80" stroke="#7a8a80" points="1199.49,-253.06 1207.9,-252.01 1200.67,-247.58 1199.49,-253.06"/>
</g>
<!-- Platform/Common_platform&#45;&gt;Support/Console -->
<g id="edge64" class="edge">
<title>Platform/Common_platform&#45;&gt;Support/Console</title>
<path fill="none" stroke="#3a6ea5" stroke-width="1.3" stroke-dasharray="5,2" d="M954.02,-282.54C943.06,-286.51 932.01,-291.14 922,-296.45 904.09,-305.94 903.52,-314.25 886,-324.45 865.48,-336.38 841.7,-346.97 820.39,-355.43"/>
<polygon fill="#3a6ea5" stroke="#3a6ea5" stroke-width="1.3" points="819.1,-352.93 812.67,-358.44 821.14,-358.14 819.1,-352.93"/>
</g>
<!-- Platform/Common_platform&#45;&gt;Type -->
<g id="edge45" class="edge">
<title>Platform/Common_platform&#45;&gt;Type</title>
<path fill="none" stroke="#7a8a80" d="M1093.23,-282.47C1164.35,-297.68 1276.65,-313.72 1371,-291.45 1377.82,-289.84 1384.76,-287.23 1391.29,-284.25"/>
<polygon fill="#7a8a80" stroke="#7a8a80" points="1392.77,-286.64 1398.74,-280.62 1390.32,-281.61 1392.77,-286.64"/>
</g>
<!-- Platform/Common_platform&#45;&gt;Type/Abstract -->
<g id="edge46" class="edge">
<title>Platform/Common_platform&#45;&gt;Type/Abstract</title>
<path fill="none" stroke="#7a8a80" d="M1111.24,-264.45C1140.81,-264.45 1173.02,-264.45 1199.8,-264.45"/>
<polygon fill="#7a8a80" stroke="#7a8a80" points="1199.92,-267.25 1207.92,-264.45 1199.92,-261.65 1199.92,-267.25"/>
</g>
<!-- Platform/SamV71_platform/SAMV71Q21B -->
<g id="node12" class="node">
<title>Platform/SamV71_platform/SAMV71Q21B</title>
<path fill="#dff3e6" stroke="#1b6f60" d="M874,-228.45C874,-228.45 645,-228.45 645,-228.45 639,-228.45 633,-222.45 633,-216.45 633,-216.45 633,-204.45 633,-204.45 633,-198.45 639,-192.45 645,-192.45 645,-192.45 874,-192.45 874,-192.45 880,-192.45 886,-198.45 886,-204.45 886,-204.45 886,-216.45 886,-216.45 886,-222.45 880,-228.45 874,-228.45"/>
<text text-anchor="middle" x="759.5" y="-207.05" font-family="Consolas" font-size="13.00">Platform/SamV71_platform/SAMV71Q21B</text>
</g>
<!-- Support/Console&#45;&gt;Application/Hello_world -->
<g id="edge10" class="edge">
<title>Support/Console&#45;&gt;Application/Hello_world</title>
<path fill="none" stroke="#c0392b" stroke-width="2.2" d="M700.46,-366.02C632.58,-357.19 519.97,-353.39 445,-407.45 362.11,-467.21 335.03,-597.02 327.04,-652.48"/>
<polygon fill="#c0392b" stroke="#c0392b" stroke-width="2.2" points="324.26,-652.1 325.95,-660.41 329.81,-652.86 324.26,-652.1"/>
</g>
<!-- Support/Console&#45;&gt;Support/Plumbing/CLI_parser -->
<g id="edge47" class="edge">
<title>Support/Console&#45;&gt;Support/Plumbing/CLI_parser</title>
<path fill="none" stroke="#7a8a80" d="M818.74,-384.27C840.41,-388.39 864.86,-394.51 886,-403.45 903.71,-410.94 904.97,-418.53 922,-427.45 934.39,-433.94 948.12,-440.02 961.29,-445.35"/>
<polygon fill="#7a8a80" stroke="#7a8a80" points="960.5,-448.05 968.97,-448.41 962.57,-442.85 960.5,-448.05"/>
</g>
<!-- Support/Console&#45;&gt;Support/Plumbing/Instruction -->
<g id="edge48" class="edge">
<title>Support/Console&#45;&gt;Support/Plumbing/Instruction</title>
<path fill="none" stroke="#7a8a80" d="M818.73,-385.74C890.13,-397.34 1014.77,-418.25 1121,-439.45 1138.12,-442.87 1156.38,-446.78 1173.82,-450.64"/>
<polygon fill="#7a8a80" stroke="#7a8a80" points="1173.35,-453.41 1181.77,-452.41 1174.57,-447.94 1173.35,-453.41"/>
</g>
<!-- Support/Console&#45;&gt;Type -->
<g id="edge49" class="edge">
<title>Support/Console&#45;&gt;Type</title>
<path fill="none" stroke="#7a8a80" d="M818.81,-374.5C951.56,-369.38 1272.47,-352.88 1371,-310.45 1382.76,-305.38 1393.88,-296.84 1402.94,-288.48"/>
<polygon fill="#7a8a80" stroke="#7a8a80" points="1405.04,-290.34 1408.86,-282.77 1401.16,-286.31 1405.04,-290.34"/>
</g>
<!-- Support/Console&#45;&gt;Type/Abstract -->
<g id="edge50" class="edge">
<title>Support/Console&#45;&gt;Type/Abstract</title>
<path fill="none" stroke="#7a8a80" d="M818.61,-360.49C849.26,-352.29 887.56,-342.38 922,-334.45 1009.91,-314.2 1032.7,-312.92 1121,-294.45 1146.87,-289.04 1175.43,-282.86 1199.82,-277.53"/>
<polygon fill="#7a8a80" stroke="#7a8a80" points="1200.71,-280.2 1207.92,-275.75 1199.51,-274.73 1200.71,-280.2"/>
</g>
<!-- Support/Console&#45;&gt;Utility -->
<g id="edge51" class="edge">
<title>Support/Console&#45;&gt;Utility</title>
<path fill="none" stroke="#7a8a80" d="M818.76,-377.43C841.93,-380.56 867.44,-387.78 886,-403.45 918.92,-431.24 889.1,-465.63 922,-493.45 944.76,-512.69 1135.99,-546.16 1219.85,-560.09"/>
<polygon fill="#7a8a80" stroke="#7a8a80" points="1219.51,-562.87 1227.86,-561.41 1220.43,-557.34 1219.51,-562.87"/>
</g>
<!-- Support/Repository&#45;&gt;Type -->
<g id="edge52" class="edge">
<title>Support/Repository&#45;&gt;Type</title>
<path fill="none" stroke="#7a8a80" d="M828.59,-427.75C968.26,-421.13 1281.59,-400.32 1371,-344.45 1391.27,-331.78 1405.71,-308.4 1414.53,-290.17"/>
<polygon fill="#7a8a80" stroke="#7a8a80" points="1417.16,-291.16 1417.97,-282.72 1412.08,-288.81 1417.16,-291.16"/>
</g>
<!-- Support/Plumbing/CLI_parser&#45;&gt;Support/Plumbing/Instruction -->
<g id="edge53" class="edge">
<title>Support/Plumbing/CLI_parser&#45;&gt;Support/Plumbing/Instruction</title>
<path fill="none" stroke="#7a8a80" d="M1121.08,-468.12C1130.2,-468.27 1139.48,-468.43 1148.69,-468.58"/>
<polygon fill="#7a8a80" stroke="#7a8a80" points="1148.72,-471.38 1156.76,-468.72 1148.81,-465.78 1148.72,-471.38"/>
</g>
<!-- Support/Plumbing/CLI_parser&#45;&gt;Type -->
<g id="edge54" class="edge">
<title>Support/Plumbing/CLI_parser&#45;&gt;Type</title>
<path fill="none" stroke="#7a8a80" d="M1121.44,-448.89C1222.74,-430.74 1366.1,-404.49 1371,-400.45 1404.31,-372.96 1417.19,-322 1422.09,-290.86"/>
<polygon fill="#7a8a80" stroke="#7a8a80" points="1424.9,-290.96 1423.27,-282.65 1419.36,-290.17 1424.9,-290.96"/>
</g>
<!-- Support/Plumbing/CLI_parser&#45;&gt;Utility -->
<g id="edge55" class="edge">
<title>Support/Plumbing/CLI_parser&#45;&gt;Utility</title>
<path fill="none" stroke="#7a8a80" d="M1082.64,-484.46C1095.42,-488.72 1108.76,-493.47 1121,-498.45 1140.15,-506.23 1186.6,-529.46 1220.33,-546.62"/>
<polygon fill="#7a8a80" stroke="#7a8a80" points="1219.35,-549.26 1227.75,-550.39 1221.89,-544.27 1219.35,-549.26"/>
</g>
<!-- Support/Plumbing/Instruction&#45;&gt;Domain -->
<g id="edge56" class="edge">
<title>Support/Plumbing/Instruction&#45;&gt;Domain</title>
<path fill="none" stroke="#7a8a80" d="M1187.38,-488.55C1079.02,-515.94 877.39,-566.9 795.97,-587.48"/>
<polygon fill="#7a8a80" stroke="#7a8a80" points="795.08,-584.82 788.01,-589.49 796.45,-590.25 795.08,-584.82"/>
</g>
<!-- Support/Plumbing/Instruction&#45;&gt;Platform/Common_platform -->
<g id="edge57" class="edge">
<title>Support/Plumbing/Instruction&#45;&gt;Platform/Common_platform</title>
<path fill="none" stroke="#7a8a80" d="M1244.62,-452.35C1220.89,-423.21 1171.16,-365.04 1121,-324.45 1103.55,-310.33 1082.49,-297.06 1064.33,-286.62"/>
<polygon fill="#7a8a80" stroke="#7a8a80" points="1065.61,-284.13 1057.27,-282.61 1062.85,-289 1065.61,-284.13"/>
</g>
<!-- Support/Plumbing/Instruction&#45;&gt;Type -->
<g id="edge58" class="edge">
<title>Support/Plumbing/Instruction&#45;&gt;Type</title>
<path fill="none" stroke="#7a8a80" d="M1351.93,-452.31C1358.9,-448.52 1365.4,-443.95 1371,-438.45 1411.7,-398.47 1421.85,-328.46 1424.3,-290.57"/>
<polygon fill="#7a8a80" stroke="#7a8a80" points="1427.1,-290.69 1424.73,-282.56 1421.51,-290.39 1427.1,-290.69"/>
</g>
<!-- Target/V71_EK_hello_world -->
<g id="node18" class="node">
<title>Target/V71_EK_hello_world</title>
<path fill="#f7e4e4" stroke="#8a3030" d="M189,-305.45C189,-305.45 28,-305.45 28,-305.45 22,-305.45 16,-299.45 16,-293.45 16,-293.45 16,-281.45 16,-281.45 16,-275.45 22,-269.45 28,-269.45 28,-269.45 189,-269.45 189,-269.45 195,-269.45 201,-275.45 201,-281.45 201,-281.45 201,-293.45 201,-293.45 201,-299.45 195,-305.45 189,-305.45"/>
<text text-anchor="middle" x="108.5" y="-284.05" font-family="Consolas" font-size="13.00">Target/V71_EK_hello_world</text>
</g>
<!-- Target/V71_EK_hello_world&#45;&gt;Application/Hello_world -->
<g id="edge59" class="edge">
<title>Target/V71_EK_hello_world&#45;&gt;Application/Hello_world</title>
<path fill="none" stroke="#7a8a80" d="M119.32,-305.52C153.65,-368.69 268.33,-579.7 308.2,-653.05"/>
<polygon fill="#7a8a80" stroke="#7a8a80" points="305.76,-654.42 312.04,-660.11 310.68,-651.75 305.76,-654.42"/>
</g>
<!-- Target/V71_EK_hello_world&#45;&gt;Board/V71_EK -->
<g id="edge60" class="edge">
<title>Target/V71_EK_hello_world&#45;&gt;Board/V71_EK</title>
<path fill="none" stroke="#7a8a80" d="M201.11,-287.45C281.61,-287.45 396.15,-287.45 463.81,-287.45"/>
<polygon fill="#7a8a80" stroke="#7a8a80" points="463.82,-290.25 471.82,-287.45 463.82,-284.65 463.82,-290.25"/>
</g>
<!-- Target/V71_EK_hello_world&#45;&gt;Type/Abstract -->
<g id="edge61" class="edge">
<title>Target/V71_EK_hello_world&#45;&gt;Type/Abstract</title>
<path fill="none" stroke="#7a8a80" d="M127.26,-269.36C181.09,-216.58 349.22,-66.45 520,-66.45 520,-66.45 520,-66.45 760.5,-66.45 921.11,-66.45 978.79,-16.81 1121,-91.45 1183.67,-124.34 1227.6,-199.48 1247.32,-239.03"/>
<polygon fill="#7a8a80" stroke="#7a8a80" points="1244.91,-240.48 1250.93,-246.44 1249.94,-238.02 1244.91,-240.48"/>
</g>
<!-- Type/Abstract&#45;&gt;Type -->
<g id="edge62" class="edge">
<title>Type/Abstract&#45;&gt;Type</title>
<path fill="none" stroke="#7a8a80" d="M1312.44,-264.45C1337.93,-264.45 1368.01,-264.45 1390.67,-264.45"/>
<polygon fill="#7a8a80" stroke="#7a8a80" points="1390.96,-267.25 1398.96,-264.45 1390.96,-261.65 1390.96,-267.25"/>
</g>
<!-- Utility&#45;&gt;Type -->
<g id="edge63" class="edge">
<title>Utility&#45;&gt;Type</title>
<path fill="none" stroke="#7a8a80" d="M1292.08,-559.78C1317.15,-552.76 1351.37,-539.18 1371,-514.45 1398.51,-479.8 1415.91,-347.61 1422.27,-290.73"/>
<polygon fill="#7a8a80" stroke="#7a8a80" points="1425.08,-290.85 1423.16,-282.59 1419.51,-290.24 1425.08,-290.85"/>
</g>
</g>
</svg>
