<?xml version="1.0" encoding="UTF-8" standalone="no"?>
<!DOCTYPE svg PUBLIC "-//W3C//DTD SVG 1.1//EN"
 "http://www.w3.org/Graphics/SVG/1.1/DTD/svg11.dtd">
<!-- Generated by graphviz version 2.44.1 (20200629.0846)
 -->
<!-- Title: V71_EK_board Pages: 1 -->
<svg width="727pt" height="234pt"
 viewBox="0.00 0.00 727.00 234.00" xmlns="http://www.w3.org/2000/svg" xmlns:xlink="http://www.w3.org/1999/xlink">
<g id="graph0" class="graph" transform="scale(1 1) rotate(0) translate(4 230)">
<title>V71_EK_board</title>
<polygon fill="white" stroke="transparent" points="-4,4 -4,-230 723,-230 723,4 -4,4"/>
<text text-anchor="middle" x="359.5" y="-7.6" font-family="Consolas" font-size="13.00">V71_EK_board — aggregation graph &#160;&#160;[ ◇ aggregation (non&#45;owning ref) &#160;&#160;&#160;◆ composition (owned member) ]</text>
<!-- V71_EK_board -->
<g id="node1" class="node">
<title>V71_EK_board</title>
<polygon fill="none" stroke="black" points="416.75,-226 300.75,-226 300.75,-190 416.75,-190 416.75,-226"/>
<text text-anchor="start" x="316.25" y="-213.2" font-family="Consolas" font-style="italic" font-size="11.00">Abstract_board</text>
<text text-anchor="start" x="308.75" y="-199" font-family="Consolas" font-size="15.00">V71_EK_board</text>
</g>
<!-- V71_EK_pin_table -->
<g id="node2" class="node">
<title>V71_EK_pin_table</title>
<polygon fill="none" stroke="black" points="156.25,-142 7.25,-142 7.25,-106 156.25,-106 156.25,-142"/>
<text text-anchor="start" x="27.25" y="-129.2" font-family="Consolas" font-style="italic" font-size="11.00">Abstract_pin_table</text>
<text text-anchor="start" x="15.25" y="-115" font-family="Consolas" font-size="15.00">V71_EK_pin_table</text>
</g>
<!-- V71_EK_board&#45;&gt;V71_EK_pin_table -->
<g id="edge2" class="edge">
<title>V71_EK_board&#45;&gt;V71_EK_pin_table</title>
<path fill="none" stroke="#1b6f60" d="M288.58,-195.82C257.87,-190.07 221.64,-182.12 189.75,-172 164.41,-163.96 136.96,-151.96 116.07,-142.1"/>
<polygon fill="#1b6f60" stroke="#1b6f60" points="288.69,-195.84 295.31,-192.98 300.5,-198 293.88,-200.85 288.69,-195.84"/>
<text text-anchor="middle" x="232.25" y="-163.2" font-family="Consolas" font-size="11.00" fill="#155a4e"> the_pin_table</text>
</g>
<!-- SamV71_clock -->
<g id="node3" class="node">
<title>SamV71_clock</title>
<polygon fill="none" stroke="black" points="290.75,-142 174.75,-142 174.75,-106 290.75,-106 290.75,-142"/>
<text text-anchor="start" x="190.25" y="-129.2" font-family="Consolas" font-style="italic" font-size="11.00">Abstract_clock</text>
<text text-anchor="start" x="182.75" y="-115" font-family="Consolas" font-size="15.00">SamV71_clock</text>
</g>
<!-- V71_EK_board&#45;&gt;SamV71_clock -->
<g id="edge1" class="edge">
<title>V71_EK_board&#45;&gt;SamV71_clock</title>
<path fill="none" stroke="#1b6f60" d="M313.81,-184.04C306.98,-180.2 300.1,-176.12 293.75,-172 279.73,-162.91 264.86,-151.49 253.31,-142.18"/>
<polygon fill="#1b6f60" stroke="#1b6f60" points="313.89,-184.08 321.07,-183.46 324.41,-189.85 317.23,-190.48 313.89,-184.08"/>
<text text-anchor="middle" x="324.25" y="-163.2" font-family="Consolas" font-size="11.00" fill="#155a4e"> the_clock</text>
</g>
<!-- SamV71_SPI -->
<g id="node5" class="node">
<title>SamV71_SPI</title>
<polygon fill="none" stroke="black" points="408.25,-142 309.25,-142 309.25,-106 408.25,-106 408.25,-142"/>
<text text-anchor="start" x="322.25" y="-129.2" font-family="Consolas" font-style="italic" font-size="11.00">Abstract_SPI</text>
<text text-anchor="start" x="317.25" y="-115" font-family="Consolas" font-size="15.00">SamV71_SPI</text>
</g>
<!-- V71_EK_board&#45;&gt;SamV71_SPI -->
<g id="edge3" class="edge">
<title>V71_EK_board&#45;&gt;SamV71_SPI</title>
<path fill="none" stroke="#1b6f60" d="M358.75,-177.48C358.75,-165.59 358.75,-152.31 358.75,-142.08"/>
<polygon fill="#1b6f60" stroke="#1b6f60" points="358.75,-177.61 362.75,-183.61 358.75,-189.61 354.75,-183.61 358.75,-177.61"/>
<text text-anchor="middle" x="383.25" y="-163.2" font-family="Consolas" font-size="11.00" fill="#155a4e"> the_SPI</text>
</g>
<!-- SamV71_USART1 -->
<g id="node6" class="node">
<title>SamV71_USART1</title>
<polygon fill="none" stroke="black" points="550.75,-142 426.75,-142 426.75,-106 550.75,-106 550.75,-142"/>
<text text-anchor="start" x="449.25" y="-129.2" font-family="Consolas" font-style="italic" font-size="11.00">Abstract_UART</text>
<text text-anchor="start" x="434.75" y="-115" font-family="Consolas" font-size="15.00">SamV71_USART1</text>
</g>
<!-- V71_EK_board&#45;&gt;SamV71_USART1 -->
<g id="edge4" class="edge">
<title>V71_EK_board&#45;&gt;SamV71_USART1</title>
<path fill="none" stroke="#1b6f60" d="M396.42,-183.24C417.24,-170.1 442.65,-154.08 461.53,-142.17"/>
<polygon fill="#1b6f60" stroke="#1b6f60" points="396.15,-183.41 393.21,-189.99 386,-189.81 388.94,-183.23 396.15,-183.41"/>
<text text-anchor="middle" x="459.25" y="-163.2" font-family="Consolas" font-size="11.00" fill="#155a4e"> the_UART</text>
</g>
<!-- Common_stdio -->
<g id="node8" class="node">
<title>Common_stdio</title>
<polygon fill="none" stroke="black" points="684.75,-142 568.75,-142 568.75,-106 684.75,-106 684.75,-142"/>
<text text-anchor="middle" x="626.75" y="-120.5" font-family="Consolas" font-size="15.00">Common_stdio</text>
</g>
<!-- V71_EK_board&#45;&gt;Common_stdio -->
<g id="edge5" class="edge">
<title>V71_EK_board&#45;&gt;Common_stdio</title>
<path fill="none" stroke="#1b6f60" d="M428.48,-189.54C448.66,-184.21 470.66,-178.13 490.75,-172 520.74,-162.86 554.01,-151.38 580.14,-142.06"/>
<polygon fill="#1b6f60" stroke="#1b6f60" points="428.45,-189.54 423.66,-194.93 416.84,-192.58 421.63,-187.19 428.45,-189.54"/>
<text text-anchor="middle" x="561.25" y="-163.2" font-family="Consolas" font-size="11.00" fill="#155a4e"> the_console</text>
</g>
<!-- SamV71_IO_pin -->
<g id="node4" class="node">
<title>SamV71_IO_pin</title>
<polygon fill="none" stroke="black" points="143.75,-58 19.75,-58 19.75,-22 143.75,-22 143.75,-58"/>
<text text-anchor="start" x="36.25" y="-45.2" font-family="Consolas" font-style="italic" font-size="11.00">Abstract_IO_pin</text>
<text text-anchor="start" x="27.75" y="-31" font-family="Consolas" font-size="15.00">SamV71_IO_pin</text>
</g>
<!-- V71_EK_pin_table&#45;&gt;SamV71_IO_pin -->
<g id="edge7" class="edge">
<title>V71_EK_pin_table&#45;&gt;SamV71_IO_pin</title>
<path fill="none" stroke="#1b6f60" d="M81.75,-93.48C81.75,-81.59 81.75,-68.31 81.75,-58.08"/>
<polygon fill="#1b6f60" stroke="#1b6f60" points="81.75,-93.61 85.75,-99.61 81.75,-105.61 77.75,-99.61 81.75,-93.61"/>
<text text-anchor="middle" x="124.25" y="-79.2" font-family="Consolas" font-size="11.00" fill="#155a4e"> the_pin_table</text>
</g>
<!-- FreeRTOS_queue -->
<g id="node7" class="node">
<title>FreeRTOS_queue</title>
<polygon fill="none" stroke="black" points="507.25,-58 210.25,-58 210.25,-22 507.25,-22 507.25,-58"/>
<text text-anchor="start" x="307.25" y="-45.2" font-family="Consolas" font-style="italic" font-size="11.00">Abstract_queue&lt;T&gt;</text>
<text text-anchor="start" x="218.25" y="-31" font-family="Consolas" font-size="15.00">FreeRTOS_queue&lt;void *, Queue_size&gt;</text>
</g>
<!-- SamV71_SPI&#45;&gt;FreeRTOS_queue -->
<g id="edge8" class="edge">
<title>SamV71_SPI&#45;&gt;FreeRTOS_queue</title>
<path fill="none" stroke="#1b6f60" d="M358.75,-93.48C358.75,-81.59 358.75,-68.31 358.75,-58.08"/>
<polygon fill="#1b6f60" stroke="#1b6f60" points="358.75,-93.61 362.75,-99.61 358.75,-105.61 354.75,-99.61 358.75,-93.61"/>
<text text-anchor="middle" x="389.25" y="-79.2" font-family="Consolas" font-size="11.00" fill="#155a4e"> the_queue</text>
</g>
<!-- Abstract_UART -->
<g id="node9" class="node">
<title>Abstract_UART</title>
<polygon fill="none" stroke="black" points="688.75,-58 564.75,-58 564.75,-22 688.75,-22 688.75,-58"/>
<text text-anchor="start" x="593.25" y="-45.2" font-family="Consolas" font-style="italic" font-size="11.00">«interface»</text>
<text text-anchor="start" x="572.75" y="-31" font-family="Consolas" font-size="15.00">Abstract_UART</text>
</g>
<!-- Common_stdio&#45;&gt;Abstract_UART -->
<g id="edge6" class="edge">
<title>Common_stdio&#45;&gt;Abstract_UART</title>
<path fill="none" stroke="#b8631f" d="M626.75,-93.48C626.75,-81.59 626.75,-68.31 626.75,-58.08"/>
<polygon fill="none" stroke="#b8631f" points="626.75,-93.61 630.75,-99.61 626.75,-105.61 622.75,-99.61 626.75,-93.61"/>
<text text-anchor="middle" x="669.25" y="-79.2" font-family="Consolas" font-size="11.00" fill="#8a4c18"> optional_UART</text>
</g>
</g>
</svg>
